%TF.GenerationSoftware,KiCad,Pcbnew,8.0.4*%
%TF.CreationDate,2024-12-12T22:54:41-05:00*%
%TF.ProjectId,Roboballers Pcb,526f626f-6261-46c6-9c65-727320506362,rev?*%
%TF.SameCoordinates,Original*%
%TF.FileFunction,Drillmap*%
%TF.FilePolarity,Positive*%
%FSLAX45Y45*%
G04 Gerber Fmt 4.5, Leading zero omitted, Abs format (unit mm)*
G04 Created by KiCad (PCBNEW 8.0.4) date 2024-12-12 22:54:41*
%MOMM*%
%LPD*%
G01*
G04 APERTURE LIST*
%ADD10C,0.200000*%
%ADD11C,0.120000*%
G04 APERTURE END LIST*
D10*
X5757360Y-14666904D02*
X5974798Y-14449466D01*
X6740000Y-14460000D02*
G75*
G02*
X6420000Y-14460000I-160000J0D01*
G01*
X6420000Y-14460000D02*
G75*
G02*
X6740000Y-14460000I160000J0D01*
G01*
X14242641Y-14666905D02*
X14025202Y-14449466D01*
X12200001Y-8677765D02*
G75*
G02*
X11900001Y-8677765I-150000J0D01*
G01*
X11900001Y-8677765D02*
G75*
G02*
X12200001Y-8677765I150000J0D01*
G01*
X6730000Y-5530000D02*
G75*
G02*
X6410000Y-5530000I-160000J0D01*
G01*
X6410000Y-5530000D02*
G75*
G02*
X6730000Y-5530000I160000J0D01*
G01*
X14666905Y-14242641D02*
G75*
G02*
X14242641Y-14666905I-212132J-212132D01*
G01*
X14604773Y-5545227D02*
G75*
G02*
X14304773Y-5545227I-150000J0D01*
G01*
X14304773Y-5545227D02*
G75*
G02*
X14604773Y-5545227I150000J0D01*
G01*
X5333098Y-14242638D02*
X5550534Y-14025202D01*
X12200001Y-11322235D02*
G75*
G02*
X11900001Y-11322235I-150000J0D01*
G01*
X11900001Y-11322235D02*
G75*
G02*
X12200001Y-11322235I150000J0D01*
G01*
X5974798Y-5550534D02*
G75*
G02*
X14025202Y-5550534I4025202J-4449466D01*
G01*
X14242640Y-5333096D02*
X14025202Y-5550534D01*
X5757359Y-5333095D02*
X5974798Y-5550534D01*
X14025202Y-14449466D02*
G75*
G02*
X5974798Y-14449466I-4025202J4449466D01*
G01*
X5333095Y-5757359D02*
X5550534Y-5974798D01*
X5550534Y-14025202D02*
G75*
G02*
X5550534Y-5974798I4449465J4025202D01*
G01*
X14666902Y-5757362D02*
X14449466Y-5974798D01*
X8100001Y-11322235D02*
G75*
G02*
X7800001Y-11322235I-150000J0D01*
G01*
X7800001Y-11322235D02*
G75*
G02*
X8100001Y-11322235I150000J0D01*
G01*
X14604773Y-14454773D02*
G75*
G02*
X14304773Y-14454773I-150000J0D01*
G01*
X14304773Y-14454773D02*
G75*
G02*
X14604773Y-14454773I150000J0D01*
G01*
X5695227Y-5545227D02*
G75*
G02*
X5395227Y-5545227I-150000J0D01*
G01*
X5395227Y-5545227D02*
G75*
G02*
X5695227Y-5545227I150000J0D01*
G01*
X14449466Y-5974798D02*
G75*
G02*
X14449466Y-14025202I-4449465J-4025202D01*
G01*
X13580000Y-14490000D02*
G75*
G02*
X13260000Y-14490000I-160000J0D01*
G01*
X13260000Y-14490000D02*
G75*
G02*
X13580000Y-14490000I160000J0D01*
G01*
X14666905Y-14242641D02*
X14449466Y-14025202D01*
X13590000Y-5530000D02*
G75*
G02*
X13270000Y-5530000I-160000J0D01*
G01*
X13270000Y-5530000D02*
G75*
G02*
X13590000Y-5530000I160000J0D01*
G01*
X5757360Y-14666904D02*
G75*
G02*
X5333098Y-14242638I-212130J212134D01*
G01*
X8100001Y-8677765D02*
G75*
G02*
X7800001Y-8677765I-150000J0D01*
G01*
X7800001Y-8677765D02*
G75*
G02*
X8100001Y-8677765I150000J0D01*
G01*
X5695227Y-14454773D02*
G75*
G02*
X5395227Y-14454773I-150000J0D01*
G01*
X5395227Y-14454773D02*
G75*
G02*
X5695227Y-14454773I150000J0D01*
G01*
X14242640Y-5333096D02*
G75*
G02*
X14666902Y-5757362I212130J-212134D01*
G01*
X5333095Y-5757359D02*
G75*
G02*
X5757359Y-5333095I212132J212132D01*
G01*
D11*
X6386700Y-11948600D02*
X6506700Y-12068600D01*
X6506700Y-11948600D02*
X6386700Y-12068600D01*
X8372800Y-6239200D02*
X8492800Y-6359200D01*
X8492800Y-6239200D02*
X8372800Y-6359200D01*
X11754200Y-6373800D02*
X11874200Y-6493800D01*
X11874200Y-6373800D02*
X11754200Y-6493800D01*
X13678200Y-11696600D02*
X13798200Y-11816600D01*
X13798200Y-11696600D02*
X13678200Y-11816600D01*
D10*
X4250777Y-16321484D02*
X4250777Y-16121484D01*
X4250777Y-16121484D02*
X4298396Y-16121484D01*
X4298396Y-16121484D02*
X4326967Y-16131007D01*
X4326967Y-16131007D02*
X4346015Y-16150055D01*
X4346015Y-16150055D02*
X4355539Y-16169103D01*
X4355539Y-16169103D02*
X4365062Y-16207198D01*
X4365062Y-16207198D02*
X4365062Y-16235769D01*
X4365062Y-16235769D02*
X4355539Y-16273864D01*
X4355539Y-16273864D02*
X4346015Y-16292912D01*
X4346015Y-16292912D02*
X4326967Y-16311960D01*
X4326967Y-16311960D02*
X4298396Y-16321484D01*
X4298396Y-16321484D02*
X4250777Y-16321484D01*
X4450777Y-16321484D02*
X4450777Y-16188150D01*
X4450777Y-16226245D02*
X4460301Y-16207198D01*
X4460301Y-16207198D02*
X4469824Y-16197674D01*
X4469824Y-16197674D02*
X4488872Y-16188150D01*
X4488872Y-16188150D02*
X4507920Y-16188150D01*
X4574586Y-16321484D02*
X4574586Y-16188150D01*
X4574586Y-16121484D02*
X4565062Y-16131007D01*
X4565062Y-16131007D02*
X4574586Y-16140531D01*
X4574586Y-16140531D02*
X4584110Y-16131007D01*
X4584110Y-16131007D02*
X4574586Y-16121484D01*
X4574586Y-16121484D02*
X4574586Y-16140531D01*
X4698396Y-16321484D02*
X4679348Y-16311960D01*
X4679348Y-16311960D02*
X4669824Y-16292912D01*
X4669824Y-16292912D02*
X4669824Y-16121484D01*
X4803158Y-16321484D02*
X4784110Y-16311960D01*
X4784110Y-16311960D02*
X4774586Y-16292912D01*
X4774586Y-16292912D02*
X4774586Y-16121484D01*
X5031729Y-16321484D02*
X5031729Y-16121484D01*
X5031729Y-16121484D02*
X5098396Y-16264341D01*
X5098396Y-16264341D02*
X5165062Y-16121484D01*
X5165062Y-16121484D02*
X5165062Y-16321484D01*
X5346015Y-16321484D02*
X5346015Y-16216722D01*
X5346015Y-16216722D02*
X5336491Y-16197674D01*
X5336491Y-16197674D02*
X5317443Y-16188150D01*
X5317443Y-16188150D02*
X5279348Y-16188150D01*
X5279348Y-16188150D02*
X5260301Y-16197674D01*
X5346015Y-16311960D02*
X5326967Y-16321484D01*
X5326967Y-16321484D02*
X5279348Y-16321484D01*
X5279348Y-16321484D02*
X5260301Y-16311960D01*
X5260301Y-16311960D02*
X5250777Y-16292912D01*
X5250777Y-16292912D02*
X5250777Y-16273864D01*
X5250777Y-16273864D02*
X5260301Y-16254817D01*
X5260301Y-16254817D02*
X5279348Y-16245293D01*
X5279348Y-16245293D02*
X5326967Y-16245293D01*
X5326967Y-16245293D02*
X5346015Y-16235769D01*
X5441253Y-16188150D02*
X5441253Y-16388150D01*
X5441253Y-16197674D02*
X5460301Y-16188150D01*
X5460301Y-16188150D02*
X5498396Y-16188150D01*
X5498396Y-16188150D02*
X5517443Y-16197674D01*
X5517443Y-16197674D02*
X5526967Y-16207198D01*
X5526967Y-16207198D02*
X5536491Y-16226245D01*
X5536491Y-16226245D02*
X5536491Y-16283388D01*
X5536491Y-16283388D02*
X5526967Y-16302436D01*
X5526967Y-16302436D02*
X5517443Y-16311960D01*
X5517443Y-16311960D02*
X5498396Y-16321484D01*
X5498396Y-16321484D02*
X5460301Y-16321484D01*
X5460301Y-16321484D02*
X5441253Y-16311960D01*
X5622205Y-16302436D02*
X5631729Y-16311960D01*
X5631729Y-16311960D02*
X5622205Y-16321484D01*
X5622205Y-16321484D02*
X5612681Y-16311960D01*
X5612681Y-16311960D02*
X5622205Y-16302436D01*
X5622205Y-16302436D02*
X5622205Y-16321484D01*
X5622205Y-16197674D02*
X5631729Y-16207198D01*
X5631729Y-16207198D02*
X5622205Y-16216722D01*
X5622205Y-16216722D02*
X5612681Y-16207198D01*
X5612681Y-16207198D02*
X5622205Y-16197674D01*
X5622205Y-16197674D02*
X5622205Y-16216722D01*
D11*
X3870000Y-16590000D02*
X3990000Y-16710000D01*
X3990000Y-16590000D02*
X3870000Y-16710000D01*
D10*
X4355539Y-16741484D02*
X4241253Y-16741484D01*
X4298396Y-16741484D02*
X4298396Y-16541484D01*
X4298396Y-16541484D02*
X4279348Y-16570055D01*
X4279348Y-16570055D02*
X4260301Y-16589103D01*
X4260301Y-16589103D02*
X4241253Y-16598626D01*
X4441253Y-16722436D02*
X4450777Y-16731960D01*
X4450777Y-16731960D02*
X4441253Y-16741484D01*
X4441253Y-16741484D02*
X4431729Y-16731960D01*
X4431729Y-16731960D02*
X4441253Y-16722436D01*
X4441253Y-16722436D02*
X4441253Y-16741484D01*
X4526967Y-16560531D02*
X4536491Y-16551007D01*
X4536491Y-16551007D02*
X4555539Y-16541484D01*
X4555539Y-16541484D02*
X4603158Y-16541484D01*
X4603158Y-16541484D02*
X4622205Y-16551007D01*
X4622205Y-16551007D02*
X4631729Y-16560531D01*
X4631729Y-16560531D02*
X4641253Y-16579579D01*
X4641253Y-16579579D02*
X4641253Y-16598626D01*
X4641253Y-16598626D02*
X4631729Y-16627198D01*
X4631729Y-16627198D02*
X4517443Y-16741484D01*
X4517443Y-16741484D02*
X4641253Y-16741484D01*
X4765062Y-16541484D02*
X4784110Y-16541484D01*
X4784110Y-16541484D02*
X4803158Y-16551007D01*
X4803158Y-16551007D02*
X4812682Y-16560531D01*
X4812682Y-16560531D02*
X4822205Y-16579579D01*
X4822205Y-16579579D02*
X4831729Y-16617674D01*
X4831729Y-16617674D02*
X4831729Y-16665293D01*
X4831729Y-16665293D02*
X4822205Y-16703388D01*
X4822205Y-16703388D02*
X4812682Y-16722436D01*
X4812682Y-16722436D02*
X4803158Y-16731960D01*
X4803158Y-16731960D02*
X4784110Y-16741484D01*
X4784110Y-16741484D02*
X4765062Y-16741484D01*
X4765062Y-16741484D02*
X4746015Y-16731960D01*
X4746015Y-16731960D02*
X4736491Y-16722436D01*
X4736491Y-16722436D02*
X4726967Y-16703388D01*
X4726967Y-16703388D02*
X4717443Y-16665293D01*
X4717443Y-16665293D02*
X4717443Y-16617674D01*
X4717443Y-16617674D02*
X4726967Y-16579579D01*
X4726967Y-16579579D02*
X4736491Y-16560531D01*
X4736491Y-16560531D02*
X4746015Y-16551007D01*
X4746015Y-16551007D02*
X4765062Y-16541484D01*
X4955539Y-16541484D02*
X4974586Y-16541484D01*
X4974586Y-16541484D02*
X4993634Y-16551007D01*
X4993634Y-16551007D02*
X5003158Y-16560531D01*
X5003158Y-16560531D02*
X5012682Y-16579579D01*
X5012682Y-16579579D02*
X5022205Y-16617674D01*
X5022205Y-16617674D02*
X5022205Y-16665293D01*
X5022205Y-16665293D02*
X5012682Y-16703388D01*
X5012682Y-16703388D02*
X5003158Y-16722436D01*
X5003158Y-16722436D02*
X4993634Y-16731960D01*
X4993634Y-16731960D02*
X4974586Y-16741484D01*
X4974586Y-16741484D02*
X4955539Y-16741484D01*
X4955539Y-16741484D02*
X4936491Y-16731960D01*
X4936491Y-16731960D02*
X4926967Y-16722436D01*
X4926967Y-16722436D02*
X4917443Y-16703388D01*
X4917443Y-16703388D02*
X4907920Y-16665293D01*
X4907920Y-16665293D02*
X4907920Y-16617674D01*
X4907920Y-16617674D02*
X4917443Y-16579579D01*
X4917443Y-16579579D02*
X4926967Y-16560531D01*
X4926967Y-16560531D02*
X4936491Y-16551007D01*
X4936491Y-16551007D02*
X4955539Y-16541484D01*
X5107920Y-16741484D02*
X5107920Y-16608150D01*
X5107920Y-16627198D02*
X5117443Y-16617674D01*
X5117443Y-16617674D02*
X5136491Y-16608150D01*
X5136491Y-16608150D02*
X5165063Y-16608150D01*
X5165063Y-16608150D02*
X5184110Y-16617674D01*
X5184110Y-16617674D02*
X5193634Y-16636722D01*
X5193634Y-16636722D02*
X5193634Y-16741484D01*
X5193634Y-16636722D02*
X5203158Y-16617674D01*
X5203158Y-16617674D02*
X5222205Y-16608150D01*
X5222205Y-16608150D02*
X5250777Y-16608150D01*
X5250777Y-16608150D02*
X5269824Y-16617674D01*
X5269824Y-16617674D02*
X5279348Y-16636722D01*
X5279348Y-16636722D02*
X5279348Y-16741484D01*
X5374586Y-16741484D02*
X5374586Y-16608150D01*
X5374586Y-16627198D02*
X5384110Y-16617674D01*
X5384110Y-16617674D02*
X5403158Y-16608150D01*
X5403158Y-16608150D02*
X5431729Y-16608150D01*
X5431729Y-16608150D02*
X5450777Y-16617674D01*
X5450777Y-16617674D02*
X5460301Y-16636722D01*
X5460301Y-16636722D02*
X5460301Y-16741484D01*
X5460301Y-16636722D02*
X5469824Y-16617674D01*
X5469824Y-16617674D02*
X5488872Y-16608150D01*
X5488872Y-16608150D02*
X5517443Y-16608150D01*
X5517443Y-16608150D02*
X5536491Y-16617674D01*
X5536491Y-16617674D02*
X5546015Y-16636722D01*
X5546015Y-16636722D02*
X5546015Y-16741484D01*
X5936491Y-16531960D02*
X5765063Y-16789103D01*
X6193634Y-16541484D02*
X6212682Y-16541484D01*
X6212682Y-16541484D02*
X6231729Y-16551007D01*
X6231729Y-16551007D02*
X6241253Y-16560531D01*
X6241253Y-16560531D02*
X6250777Y-16579579D01*
X6250777Y-16579579D02*
X6260301Y-16617674D01*
X6260301Y-16617674D02*
X6260301Y-16665293D01*
X6260301Y-16665293D02*
X6250777Y-16703388D01*
X6250777Y-16703388D02*
X6241253Y-16722436D01*
X6241253Y-16722436D02*
X6231729Y-16731960D01*
X6231729Y-16731960D02*
X6212682Y-16741484D01*
X6212682Y-16741484D02*
X6193634Y-16741484D01*
X6193634Y-16741484D02*
X6174586Y-16731960D01*
X6174586Y-16731960D02*
X6165063Y-16722436D01*
X6165063Y-16722436D02*
X6155539Y-16703388D01*
X6155539Y-16703388D02*
X6146015Y-16665293D01*
X6146015Y-16665293D02*
X6146015Y-16617674D01*
X6146015Y-16617674D02*
X6155539Y-16579579D01*
X6155539Y-16579579D02*
X6165063Y-16560531D01*
X6165063Y-16560531D02*
X6174586Y-16551007D01*
X6174586Y-16551007D02*
X6193634Y-16541484D01*
X6346015Y-16722436D02*
X6355539Y-16731960D01*
X6355539Y-16731960D02*
X6346015Y-16741484D01*
X6346015Y-16741484D02*
X6336491Y-16731960D01*
X6336491Y-16731960D02*
X6346015Y-16722436D01*
X6346015Y-16722436D02*
X6346015Y-16741484D01*
X6479348Y-16541484D02*
X6498396Y-16541484D01*
X6498396Y-16541484D02*
X6517444Y-16551007D01*
X6517444Y-16551007D02*
X6526967Y-16560531D01*
X6526967Y-16560531D02*
X6536491Y-16579579D01*
X6536491Y-16579579D02*
X6546015Y-16617674D01*
X6546015Y-16617674D02*
X6546015Y-16665293D01*
X6546015Y-16665293D02*
X6536491Y-16703388D01*
X6536491Y-16703388D02*
X6526967Y-16722436D01*
X6526967Y-16722436D02*
X6517444Y-16731960D01*
X6517444Y-16731960D02*
X6498396Y-16741484D01*
X6498396Y-16741484D02*
X6479348Y-16741484D01*
X6479348Y-16741484D02*
X6460301Y-16731960D01*
X6460301Y-16731960D02*
X6450777Y-16722436D01*
X6450777Y-16722436D02*
X6441253Y-16703388D01*
X6441253Y-16703388D02*
X6431729Y-16665293D01*
X6431729Y-16665293D02*
X6431729Y-16617674D01*
X6431729Y-16617674D02*
X6441253Y-16579579D01*
X6441253Y-16579579D02*
X6450777Y-16560531D01*
X6450777Y-16560531D02*
X6460301Y-16551007D01*
X6460301Y-16551007D02*
X6479348Y-16541484D01*
X6717444Y-16608150D02*
X6717444Y-16741484D01*
X6669824Y-16531960D02*
X6622205Y-16674817D01*
X6622205Y-16674817D02*
X6746015Y-16674817D01*
X6803158Y-16541484D02*
X6936491Y-16541484D01*
X6936491Y-16541484D02*
X6850777Y-16741484D01*
X7003158Y-16560531D02*
X7012682Y-16551007D01*
X7012682Y-16551007D02*
X7031729Y-16541484D01*
X7031729Y-16541484D02*
X7079348Y-16541484D01*
X7079348Y-16541484D02*
X7098396Y-16551007D01*
X7098396Y-16551007D02*
X7107920Y-16560531D01*
X7107920Y-16560531D02*
X7117444Y-16579579D01*
X7117444Y-16579579D02*
X7117444Y-16598626D01*
X7117444Y-16598626D02*
X7107920Y-16627198D01*
X7107920Y-16627198D02*
X6993634Y-16741484D01*
X6993634Y-16741484D02*
X7117444Y-16741484D01*
X7193634Y-16541484D02*
X7193634Y-16579579D01*
X7269825Y-16541484D02*
X7269825Y-16579579D01*
X7565063Y-16817674D02*
X7555539Y-16808150D01*
X7555539Y-16808150D02*
X7536491Y-16779579D01*
X7536491Y-16779579D02*
X7526967Y-16760531D01*
X7526967Y-16760531D02*
X7517444Y-16731960D01*
X7517444Y-16731960D02*
X7507920Y-16684341D01*
X7507920Y-16684341D02*
X7507920Y-16646245D01*
X7507920Y-16646245D02*
X7517444Y-16598626D01*
X7517444Y-16598626D02*
X7526967Y-16570055D01*
X7526967Y-16570055D02*
X7536491Y-16551007D01*
X7536491Y-16551007D02*
X7555539Y-16522436D01*
X7555539Y-16522436D02*
X7565063Y-16512912D01*
X7726967Y-16608150D02*
X7726967Y-16741484D01*
X7679348Y-16531960D02*
X7631729Y-16674817D01*
X7631729Y-16674817D02*
X7755539Y-16674817D01*
X7984110Y-16741484D02*
X7984110Y-16541484D01*
X8069825Y-16741484D02*
X8069825Y-16636722D01*
X8069825Y-16636722D02*
X8060301Y-16617674D01*
X8060301Y-16617674D02*
X8041253Y-16608150D01*
X8041253Y-16608150D02*
X8012682Y-16608150D01*
X8012682Y-16608150D02*
X7993634Y-16617674D01*
X7993634Y-16617674D02*
X7984110Y-16627198D01*
X8193634Y-16741484D02*
X8174587Y-16731960D01*
X8174587Y-16731960D02*
X8165063Y-16722436D01*
X8165063Y-16722436D02*
X8155539Y-16703388D01*
X8155539Y-16703388D02*
X8155539Y-16646245D01*
X8155539Y-16646245D02*
X8165063Y-16627198D01*
X8165063Y-16627198D02*
X8174587Y-16617674D01*
X8174587Y-16617674D02*
X8193634Y-16608150D01*
X8193634Y-16608150D02*
X8222206Y-16608150D01*
X8222206Y-16608150D02*
X8241253Y-16617674D01*
X8241253Y-16617674D02*
X8250777Y-16627198D01*
X8250777Y-16627198D02*
X8260301Y-16646245D01*
X8260301Y-16646245D02*
X8260301Y-16703388D01*
X8260301Y-16703388D02*
X8250777Y-16722436D01*
X8250777Y-16722436D02*
X8241253Y-16731960D01*
X8241253Y-16731960D02*
X8222206Y-16741484D01*
X8222206Y-16741484D02*
X8193634Y-16741484D01*
X8374587Y-16741484D02*
X8355539Y-16731960D01*
X8355539Y-16731960D02*
X8346015Y-16712912D01*
X8346015Y-16712912D02*
X8346015Y-16541484D01*
X8526968Y-16731960D02*
X8507920Y-16741484D01*
X8507920Y-16741484D02*
X8469825Y-16741484D01*
X8469825Y-16741484D02*
X8450777Y-16731960D01*
X8450777Y-16731960D02*
X8441253Y-16712912D01*
X8441253Y-16712912D02*
X8441253Y-16636722D01*
X8441253Y-16636722D02*
X8450777Y-16617674D01*
X8450777Y-16617674D02*
X8469825Y-16608150D01*
X8469825Y-16608150D02*
X8507920Y-16608150D01*
X8507920Y-16608150D02*
X8526968Y-16617674D01*
X8526968Y-16617674D02*
X8536491Y-16636722D01*
X8536491Y-16636722D02*
X8536491Y-16655769D01*
X8536491Y-16655769D02*
X8441253Y-16674817D01*
X8612682Y-16731960D02*
X8631730Y-16741484D01*
X8631730Y-16741484D02*
X8669825Y-16741484D01*
X8669825Y-16741484D02*
X8688872Y-16731960D01*
X8688872Y-16731960D02*
X8698396Y-16712912D01*
X8698396Y-16712912D02*
X8698396Y-16703388D01*
X8698396Y-16703388D02*
X8688872Y-16684341D01*
X8688872Y-16684341D02*
X8669825Y-16674817D01*
X8669825Y-16674817D02*
X8641253Y-16674817D01*
X8641253Y-16674817D02*
X8622206Y-16665293D01*
X8622206Y-16665293D02*
X8612682Y-16646245D01*
X8612682Y-16646245D02*
X8612682Y-16636722D01*
X8612682Y-16636722D02*
X8622206Y-16617674D01*
X8622206Y-16617674D02*
X8641253Y-16608150D01*
X8641253Y-16608150D02*
X8669825Y-16608150D01*
X8669825Y-16608150D02*
X8688872Y-16617674D01*
X8765063Y-16817674D02*
X8774587Y-16808150D01*
X8774587Y-16808150D02*
X8793634Y-16779579D01*
X8793634Y-16779579D02*
X8803158Y-16760531D01*
X8803158Y-16760531D02*
X8812682Y-16731960D01*
X8812682Y-16731960D02*
X8822206Y-16684341D01*
X8822206Y-16684341D02*
X8822206Y-16646245D01*
X8822206Y-16646245D02*
X8812682Y-16598626D01*
X8812682Y-16598626D02*
X8803158Y-16570055D01*
X8803158Y-16570055D02*
X8793634Y-16551007D01*
X8793634Y-16551007D02*
X8774587Y-16522436D01*
X8774587Y-16522436D02*
X8765063Y-16512912D01*
X9126968Y-16817674D02*
X9117444Y-16808150D01*
X9117444Y-16808150D02*
X9098396Y-16779579D01*
X9098396Y-16779579D02*
X9088872Y-16760531D01*
X9088872Y-16760531D02*
X9079349Y-16731960D01*
X9079349Y-16731960D02*
X9069825Y-16684341D01*
X9069825Y-16684341D02*
X9069825Y-16646245D01*
X9069825Y-16646245D02*
X9079349Y-16598626D01*
X9079349Y-16598626D02*
X9088872Y-16570055D01*
X9088872Y-16570055D02*
X9098396Y-16551007D01*
X9098396Y-16551007D02*
X9117444Y-16522436D01*
X9117444Y-16522436D02*
X9126968Y-16512912D01*
X9203158Y-16608150D02*
X9203158Y-16741484D01*
X9203158Y-16627198D02*
X9212682Y-16617674D01*
X9212682Y-16617674D02*
X9231730Y-16608150D01*
X9231730Y-16608150D02*
X9260301Y-16608150D01*
X9260301Y-16608150D02*
X9279349Y-16617674D01*
X9279349Y-16617674D02*
X9288872Y-16636722D01*
X9288872Y-16636722D02*
X9288872Y-16741484D01*
X9412682Y-16741484D02*
X9393634Y-16731960D01*
X9393634Y-16731960D02*
X9384111Y-16722436D01*
X9384111Y-16722436D02*
X9374587Y-16703388D01*
X9374587Y-16703388D02*
X9374587Y-16646245D01*
X9374587Y-16646245D02*
X9384111Y-16627198D01*
X9384111Y-16627198D02*
X9393634Y-16617674D01*
X9393634Y-16617674D02*
X9412682Y-16608150D01*
X9412682Y-16608150D02*
X9441253Y-16608150D01*
X9441253Y-16608150D02*
X9460301Y-16617674D01*
X9460301Y-16617674D02*
X9469825Y-16627198D01*
X9469825Y-16627198D02*
X9479349Y-16646245D01*
X9479349Y-16646245D02*
X9479349Y-16703388D01*
X9479349Y-16703388D02*
X9469825Y-16722436D01*
X9469825Y-16722436D02*
X9460301Y-16731960D01*
X9460301Y-16731960D02*
X9441253Y-16741484D01*
X9441253Y-16741484D02*
X9412682Y-16741484D01*
X9536492Y-16608150D02*
X9612682Y-16608150D01*
X9565063Y-16541484D02*
X9565063Y-16712912D01*
X9565063Y-16712912D02*
X9574587Y-16731960D01*
X9574587Y-16731960D02*
X9593634Y-16741484D01*
X9593634Y-16741484D02*
X9612682Y-16741484D01*
X9831730Y-16608150D02*
X9831730Y-16808150D01*
X9831730Y-16617674D02*
X9850777Y-16608150D01*
X9850777Y-16608150D02*
X9888873Y-16608150D01*
X9888873Y-16608150D02*
X9907920Y-16617674D01*
X9907920Y-16617674D02*
X9917444Y-16627198D01*
X9917444Y-16627198D02*
X9926968Y-16646245D01*
X9926968Y-16646245D02*
X9926968Y-16703388D01*
X9926968Y-16703388D02*
X9917444Y-16722436D01*
X9917444Y-16722436D02*
X9907920Y-16731960D01*
X9907920Y-16731960D02*
X9888873Y-16741484D01*
X9888873Y-16741484D02*
X9850777Y-16741484D01*
X9850777Y-16741484D02*
X9831730Y-16731960D01*
X10041253Y-16741484D02*
X10022206Y-16731960D01*
X10022206Y-16731960D02*
X10012682Y-16712912D01*
X10012682Y-16712912D02*
X10012682Y-16541484D01*
X10203158Y-16741484D02*
X10203158Y-16636722D01*
X10203158Y-16636722D02*
X10193634Y-16617674D01*
X10193634Y-16617674D02*
X10174587Y-16608150D01*
X10174587Y-16608150D02*
X10136492Y-16608150D01*
X10136492Y-16608150D02*
X10117444Y-16617674D01*
X10203158Y-16731960D02*
X10184111Y-16741484D01*
X10184111Y-16741484D02*
X10136492Y-16741484D01*
X10136492Y-16741484D02*
X10117444Y-16731960D01*
X10117444Y-16731960D02*
X10107920Y-16712912D01*
X10107920Y-16712912D02*
X10107920Y-16693864D01*
X10107920Y-16693864D02*
X10117444Y-16674817D01*
X10117444Y-16674817D02*
X10136492Y-16665293D01*
X10136492Y-16665293D02*
X10184111Y-16665293D01*
X10184111Y-16665293D02*
X10203158Y-16655769D01*
X10269825Y-16608150D02*
X10346015Y-16608150D01*
X10298396Y-16541484D02*
X10298396Y-16712912D01*
X10298396Y-16712912D02*
X10307920Y-16731960D01*
X10307920Y-16731960D02*
X10326968Y-16741484D01*
X10326968Y-16741484D02*
X10346015Y-16741484D01*
X10488873Y-16731960D02*
X10469825Y-16741484D01*
X10469825Y-16741484D02*
X10431730Y-16741484D01*
X10431730Y-16741484D02*
X10412682Y-16731960D01*
X10412682Y-16731960D02*
X10403158Y-16712912D01*
X10403158Y-16712912D02*
X10403158Y-16636722D01*
X10403158Y-16636722D02*
X10412682Y-16617674D01*
X10412682Y-16617674D02*
X10431730Y-16608150D01*
X10431730Y-16608150D02*
X10469825Y-16608150D01*
X10469825Y-16608150D02*
X10488873Y-16617674D01*
X10488873Y-16617674D02*
X10498396Y-16636722D01*
X10498396Y-16636722D02*
X10498396Y-16655769D01*
X10498396Y-16655769D02*
X10403158Y-16674817D01*
X10669825Y-16741484D02*
X10669825Y-16541484D01*
X10669825Y-16731960D02*
X10650777Y-16741484D01*
X10650777Y-16741484D02*
X10612682Y-16741484D01*
X10612682Y-16741484D02*
X10593634Y-16731960D01*
X10593634Y-16731960D02*
X10584111Y-16722436D01*
X10584111Y-16722436D02*
X10574587Y-16703388D01*
X10574587Y-16703388D02*
X10574587Y-16646245D01*
X10574587Y-16646245D02*
X10584111Y-16627198D01*
X10584111Y-16627198D02*
X10593634Y-16617674D01*
X10593634Y-16617674D02*
X10612682Y-16608150D01*
X10612682Y-16608150D02*
X10650777Y-16608150D01*
X10650777Y-16608150D02*
X10669825Y-16617674D01*
X10746015Y-16817674D02*
X10755539Y-16808150D01*
X10755539Y-16808150D02*
X10774587Y-16779579D01*
X10774587Y-16779579D02*
X10784111Y-16760531D01*
X10784111Y-16760531D02*
X10793634Y-16731960D01*
X10793634Y-16731960D02*
X10803158Y-16684341D01*
X10803158Y-16684341D02*
X10803158Y-16646245D01*
X10803158Y-16646245D02*
X10793634Y-16598626D01*
X10793634Y-16598626D02*
X10784111Y-16570055D01*
X10784111Y-16570055D02*
X10774587Y-16551007D01*
X10774587Y-16551007D02*
X10755539Y-16522436D01*
X10755539Y-16522436D02*
X10746015Y-16512912D01*
M02*
