M48
; DRILL file {KiCad 8.0.4} date 2024-12-12T22:54:43-0500
; FORMAT={-:-/ absolute / metric / decimal}
; #@! TF.CreationDate,2024-12-12T22:54:43-05:00
; #@! TF.GenerationSoftware,Kicad,Pcbnew,8.0.4
; #@! TF.FileFunction,Plated,1,4,PTH
FMAT,2
METRIC
; #@! TA.AperFunction,Plated,PTH,ViaDrill
T1C0.300
; #@! TA.AperFunction,Plated,PTH,ComponentDrill
T2C0.711
; #@! TA.AperFunction,Plated,PTH,ComponentDrill
T3C0.762
; #@! TA.AperFunction,Plated,PTH,ComponentDrill
T4C0.787
; #@! TA.AperFunction,Plated,PTH,ComponentDrill
T5C0.800
; #@! TA.AperFunction,Plated,PTH,ComponentDrill
T6C0.900
; #@! TA.AperFunction,Plated,PTH,ComponentDrill
T7C1.000
; #@! TA.AperFunction,Plated,PTH,ComponentDrill
T8C1.020
; #@! TA.AperFunction,Plated,PTH,ComponentDrill
T9C1.100
; #@! TA.AperFunction,Plated,PTH,ComponentDrill
T10C1.300
; #@! TA.AperFunction,Plated,PTH,ComponentDrill
T11C1.499
%
G90
G05
T1
X50.06Y-85.617
X55.399Y-117.998
X58.9Y-72.203
X60.686Y-82.798
X63.347Y-104.649
X65.073Y-75.99
X65.339Y-63.0
X65.82Y-112.273
X65.993Y-130.998
X65.993Y-136.617
X67.719Y-92.627
X67.813Y-60.87
X68.553Y-78.6
X69.107Y-75.638
X72.151Y-89.711
X72.873Y-141.232
X76.001Y-56.283
X76.672Y-85.481
X77.419Y-72.288
X77.419Y-72.949
X77.419Y-73.609
X77.419Y-77.927
X77.419Y-78.588
X77.419Y-79.248
X78.444Y-104.913
X79.959Y-77.927
X79.959Y-78.588
X79.959Y-79.248
X80.275Y-109.827
X81.229Y-72.288
X81.229Y-72.949
X81.229Y-73.609
X81.229Y-77.927
X81.229Y-78.588
X81.229Y-79.248
X81.872Y-55.513
X82.804Y-80.678
X83.769Y-72.288
X83.769Y-72.949
X83.769Y-73.609
X83.769Y-77.927
X83.769Y-78.588
X83.769Y-79.248
X85.446Y-95.352
X86.049Y-71.815
X87.752Y-96.898
X88.287Y-148.224
X88.476Y-51.938
X90.305Y-123.571
X90.78Y-75.54
X90.928Y-148.889
X91.084Y-76.048
X91.288Y-75.184
X91.592Y-75.692
X91.745Y-122.276
X91.796Y-124.816
X91.796Y-128.626
X92.405Y-122.276
X92.456Y-124.816
X92.456Y-128.626
X92.507Y-118.191
X92.731Y-88.478
X93.066Y-122.276
X93.116Y-124.816
X93.116Y-128.626
X96.361Y-87.253
X97.434Y-124.841
X97.434Y-126.086
X97.434Y-128.626
X97.515Y-48.478
X97.536Y-122.276
X97.544Y-103.882
X98.095Y-122.276
X98.095Y-124.841
X98.095Y-126.086
X98.095Y-128.626
X98.467Y-149.0
X98.654Y-122.276
X98.755Y-124.816
X98.755Y-126.086
X98.755Y-128.626
X100.584Y-100.642
X101.854Y-102.933
X103.036Y-81.956
X103.412Y-84.599
X104.8Y-50.855
X105.53Y-84.164
X107.373Y-88.134
X107.373Y-102.456
X109.133Y-122.79
X109.134Y-127.859
X109.83Y-119.656
X110.01Y-80.331
X111.524Y-148.381
X113.443Y-87.636
X114.397Y-125.416
X115.028Y-90.31
X115.689Y-85.2
X117.348Y-71.425
X117.348Y-72.085
X117.348Y-72.746
X117.348Y-77.064
X117.348Y-77.724
X117.348Y-78.384
X117.389Y-145.545
X118.246Y-149.262
X118.984Y-75.569
X118.985Y-141.841
X119.888Y-77.064
X119.888Y-77.724
X119.888Y-78.384
X121.158Y-71.374
X121.158Y-72.085
X121.158Y-72.746
X121.158Y-77.064
X121.158Y-77.724
X121.158Y-78.384
X121.939Y-90.294
X122.509Y-88.259
X123.698Y-71.374
X123.698Y-72.085
X123.698Y-72.746
X123.698Y-77.064
X123.698Y-77.724
X123.698Y-78.384
X124.016Y-56.284
X124.968Y-86.423
X125.432Y-109.827
X125.865Y-76.59
X126.864Y-138.117
X127.59Y-97.195
X128.118Y-78.029
X128.168Y-77.47
X128.6Y-88.277
X128.727Y-77.47
X128.727Y-78.029
X129.435Y-87.545
X129.505Y-107.37
X129.987Y-104.161
X131.784Y-89.529
X132.551Y-106.576
X132.551Y-111.928
X134.402Y-91.179
X134.62Y-106.731
X134.62Y-107.391
X134.62Y-108.052
X134.62Y-112.432
X134.62Y-113.081
X134.62Y-113.741
X135.243Y-129.015
X135.559Y-69.318
X137.16Y-112.37
X137.16Y-113.03
X137.16Y-113.69
X137.685Y-65.275
X138.43Y-106.731
X138.43Y-107.391
X138.43Y-108.052
X138.43Y-112.37
X138.43Y-113.03
X138.43Y-113.69
X139.134Y-116.661
X140.97Y-106.731
X140.97Y-107.391
X140.97Y-108.052
X140.97Y-112.37
X140.97Y-113.03
X140.97Y-113.69
X143.258Y-73.591
X143.969Y-131.68
X146.06Y-120.32
X146.189Y-76.204
X146.189Y-85.495
X146.189Y-93.594
X146.688Y-107.293
X147.33Y-113.965
T2
X45.994Y-97.46
X45.994Y-100.0
X45.994Y-102.54
X47.177Y-88.476
X47.177Y-111.524
X47.834Y-86.022
X47.834Y-113.978
X48.492Y-83.569
X48.492Y-116.431
X51.959Y-75.197
X51.959Y-124.803
X53.229Y-72.997
X53.229Y-127.003
X54.499Y-70.797
X54.499Y-129.203
X60.016Y-63.608
X60.016Y-136.392
X61.812Y-61.812
X61.812Y-138.188
X63.608Y-60.016
X63.608Y-139.984
X70.797Y-54.499
X70.797Y-145.501
X72.997Y-53.229
X72.997Y-146.771
X75.197Y-51.959
X75.197Y-148.041
X83.569Y-48.492
X83.569Y-151.508
X86.022Y-47.834
X86.022Y-152.166
X88.476Y-47.177
X88.476Y-152.823
X97.46Y-45.994
X97.46Y-154.006
X100.0Y-45.994
X100.0Y-154.006
X102.54Y-45.994
X102.54Y-154.006
X111.524Y-47.177
X111.524Y-152.823
X113.978Y-47.834
X113.978Y-152.166
X116.431Y-48.492
X116.431Y-151.508
X124.803Y-51.959
X124.803Y-148.041
X127.003Y-53.229
X127.003Y-146.771
X129.203Y-54.499
X129.203Y-145.501
X136.392Y-60.016
X136.392Y-139.984
X138.188Y-61.812
X138.188Y-138.188
X139.984Y-63.608
X139.984Y-136.392
X145.501Y-70.797
X145.501Y-129.203
X146.771Y-72.997
X146.771Y-127.003
X148.041Y-75.197
X148.041Y-124.803
X151.508Y-83.569
X151.508Y-116.431
X152.166Y-86.022
X152.166Y-113.978
X152.823Y-88.476
X152.823Y-111.524
X154.006Y-97.46
X154.006Y-100.0
X154.006Y-102.54
T3
X56.81Y-91.542
X56.81Y-94.082
X56.81Y-96.622
X56.81Y-99.162
X56.81Y-101.702
X75.27Y-91.542
X75.27Y-94.082
X75.27Y-96.622
X75.27Y-99.162
X75.27Y-101.702
T4
X74.672Y-120.396
X74.672Y-125.984
X74.672Y-131.572
X74.672Y-137.16
X76.672Y-120.396
X76.672Y-125.984
X76.672Y-131.572
X76.672Y-137.16
X78.672Y-120.396
X78.672Y-125.984
X78.672Y-131.572
X78.672Y-137.16
T5
X56.911Y-106.416
X56.911Y-114.036
X59.451Y-106.416
X59.451Y-114.036
X61.991Y-106.416
X61.991Y-114.036
X64.531Y-106.416
X64.531Y-114.036
X67.071Y-106.416
X67.071Y-114.036
X69.611Y-106.416
X69.611Y-114.036
X72.151Y-106.416
X72.151Y-114.036
X74.691Y-106.416
X74.691Y-114.036
X90.932Y-54.356
X90.932Y-61.976
X93.472Y-54.356
X93.472Y-61.976
X96.012Y-54.356
X96.012Y-61.976
X98.552Y-54.356
X98.552Y-61.976
X101.092Y-54.356
X101.092Y-61.976
X103.632Y-54.356
X103.632Y-61.976
X105.181Y-86.902
X105.181Y-89.442
X106.172Y-54.356
X106.172Y-61.976
X108.712Y-54.356
X108.712Y-61.976
X121.92Y-117.094
X121.92Y-119.634
X121.92Y-122.174
X121.92Y-124.714
X121.92Y-127.254
X121.92Y-129.794
X121.92Y-132.334
X121.92Y-134.874
X129.54Y-117.094
X129.54Y-119.634
X129.54Y-122.174
X129.54Y-124.714
X129.54Y-127.254
X129.54Y-129.794
X129.54Y-132.334
X129.54Y-134.874
T6
X109.831Y-87.102
X109.831Y-89.642
T7
X62.467Y-121.686
X62.467Y-124.186
X80.228Y-60.992
X82.728Y-60.992
X120.137Y-139.192
X120.142Y-60.238
X120.142Y-62.738
X122.677Y-139.192
X134.366Y-78.46
X134.366Y-81.0
X134.366Y-83.54
X134.366Y-86.08
X134.366Y-88.62
X135.382Y-119.166
X135.382Y-121.666
X136.906Y-78.46
X136.906Y-81.0
X136.906Y-83.54
X136.906Y-86.08
X136.906Y-88.62
T8
X83.871Y-116.921
X83.871Y-119.461
X83.871Y-122.001
X83.871Y-124.541
X83.871Y-127.081
X83.871Y-129.621
X83.871Y-132.161
X83.871Y-134.701
X116.129Y-116.921
X116.129Y-119.461
X116.129Y-122.001
X116.129Y-124.541
X116.129Y-127.081
X116.129Y-129.621
X116.129Y-132.161
X116.129Y-134.701
T9
X68.834Y-67.818
X68.834Y-83.058
X71.374Y-67.818
X71.374Y-83.058
X73.914Y-67.818
X73.914Y-83.058
X76.454Y-67.818
X76.454Y-83.058
X78.994Y-67.818
X78.994Y-83.058
X81.534Y-67.818
X81.534Y-83.058
X84.074Y-67.818
X84.074Y-83.058
X86.614Y-67.818
X86.614Y-83.058
X89.154Y-67.818
X89.154Y-83.058
X91.694Y-67.818
X91.694Y-83.058
X94.234Y-67.818
X94.234Y-83.058
X96.774Y-67.818
X96.774Y-83.058
X99.314Y-67.818
X99.314Y-83.058
X101.854Y-67.818
X101.854Y-83.058
X104.394Y-67.818
X104.394Y-83.058
X106.934Y-67.818
X106.934Y-83.058
X109.474Y-67.818
X109.474Y-83.058
X112.014Y-67.818
X112.014Y-83.058
X114.554Y-67.818
X114.554Y-83.058
X117.094Y-67.818
X117.094Y-83.058
X119.634Y-67.818
X119.634Y-83.058
X122.174Y-67.818
X122.174Y-83.058
X124.714Y-67.818
X124.714Y-83.058
X127.254Y-67.818
X127.254Y-83.058
T10
X121.652Y-98.806
X126.652Y-98.806
X131.652Y-98.806
X136.652Y-98.806
T11
X72.572Y-120.396
X72.572Y-125.984
X72.572Y-131.572
X72.572Y-137.16
X80.772Y-120.396
X80.772Y-125.984
X80.772Y-131.572
X80.772Y-137.16
T7
X103.0Y-142.9G85X103.0Y-139.1
G05
X110.1Y-142.9G85X110.1Y-139.1
G05
M30
