%TF.GenerationSoftware,KiCad,Pcbnew,8.0.4*%
%TF.CreationDate,2024-12-12T22:54:30-05:00*%
%TF.ProjectId,Roboballers Pcb,526f626f-6261-46c6-9c65-727320506362,rev?*%
%TF.SameCoordinates,Original*%
%TF.FileFunction,Legend,Bot*%
%TF.FilePolarity,Positive*%
%FSLAX46Y46*%
G04 Gerber Fmt 4.6, Leading zero omitted, Abs format (unit mm)*
G04 Created by KiCad (PCBNEW 8.0.4) date 2024-12-12 22:54:30*
%MOMM*%
%LPD*%
G01*
G04 APERTURE LIST*
G04 Aperture macros list*
%AMRoundRect*
0 Rectangle with rounded corners*
0 $1 Rounding radius*
0 $2 $3 $4 $5 $6 $7 $8 $9 X,Y pos of 4 corners*
0 Add a 4 corners polygon primitive as box body*
4,1,4,$2,$3,$4,$5,$6,$7,$8,$9,$2,$3,0*
0 Add four circle primitives for the rounded corners*
1,1,$1+$1,$2,$3*
1,1,$1+$1,$4,$5*
1,1,$1+$1,$6,$7*
1,1,$1+$1,$8,$9*
0 Add four rect primitives between the rounded corners*
20,1,$1+$1,$2,$3,$4,$5,0*
20,1,$1+$1,$4,$5,$6,$7,0*
20,1,$1+$1,$6,$7,$8,$9,0*
20,1,$1+$1,$8,$9,$2,$3,0*%
%AMRotRect*
0 Rectangle, with rotation*
0 The origin of the aperture is its center*
0 $1 length*
0 $2 width*
0 $3 Rotation angle, in degrees counterclockwise*
0 Add horizontal line*
21,1,$1,$2,0,0,$3*%
G04 Aperture macros list end*
%ADD10C,0.150000*%
%ADD11C,0.120000*%
%ADD12R,1.219200X1.219200*%
%ADD13C,1.219200*%
%ADD14R,1.600000X1.600000*%
%ADD15O,1.600000X1.600000*%
%ADD16RotRect,1.219200X1.219200X255.000000*%
%ADD17RotRect,1.219200X1.219200X105.000000*%
%ADD18RotRect,1.219200X1.219200X165.000000*%
%ADD19C,1.700000*%
%ADD20RotRect,1.219200X1.219200X300.000000*%
%ADD21RotRect,1.219200X1.219200X150.000000*%
%ADD22R,1.800000X1.800000*%
%ADD23C,1.800000*%
%ADD24RotRect,1.219200X1.219200X225.000000*%
%ADD25RotRect,1.219200X1.219200X30.000000*%
%ADD26RotRect,1.219200X1.219200X135.000000*%
%ADD27RotRect,1.219200X1.219200X240.000000*%
%ADD28O,2.000000X6.000000*%
%ADD29RotRect,1.219200X1.219200X60.000000*%
%ADD30RotRect,1.219200X1.219200X210.000000*%
%ADD31RotRect,1.219200X1.219200X120.000000*%
%ADD32RoundRect,0.250000X-0.600000X-0.600000X0.600000X-0.600000X0.600000X0.600000X-0.600000X0.600000X0*%
%ADD33R,1.295400X1.295400*%
%ADD34C,1.295400*%
%ADD35C,1.498600*%
%ADD36C,1.600000*%
%ADD37RotRect,1.219200X1.219200X285.000000*%
%ADD38RotRect,1.219200X1.219200X15.000000*%
%ADD39C,1.524000*%
%ADD40RotRect,1.219200X1.219200X195.000000*%
%ADD41RotRect,1.219200X1.219200X345.000000*%
%ADD42RotRect,1.219200X1.219200X75.000000*%
%ADD43RotRect,1.219200X1.219200X45.000000*%
%ADD44R,1.700000X1.700000*%
%ADD45O,1.700000X1.700000*%
%ADD46RotRect,1.219200X1.219200X330.000000*%
%ADD47RotRect,1.219200X1.219200X315.000000*%
%ADD48R,2.600000X2.600000*%
%ADD49C,2.600000*%
%ADD50C,1.200000*%
%ADD51RoundRect,0.250000X-0.750000X0.600000X-0.750000X-0.600000X0.750000X-0.600000X0.750000X0.600000X0*%
%ADD52O,2.000000X1.700000*%
%ADD53RoundRect,0.250000X0.600000X0.750000X-0.600000X0.750000X-0.600000X-0.750000X0.600000X-0.750000X0*%
%ADD54O,1.700000X2.000000*%
%ADD55RoundRect,0.250000X0.750000X-0.600000X0.750000X0.600000X-0.750000X0.600000X-0.750000X-0.600000X0*%
G04 APERTURE END LIST*
D10*
X58371819Y-122602666D02*
X59086104Y-122602666D01*
X59086104Y-122602666D02*
X59228961Y-122555047D01*
X59228961Y-122555047D02*
X59324200Y-122459809D01*
X59324200Y-122459809D02*
X59371819Y-122316952D01*
X59371819Y-122316952D02*
X59371819Y-122221714D01*
X58371819Y-122983619D02*
X58371819Y-123602666D01*
X58371819Y-123602666D02*
X58752771Y-123269333D01*
X58752771Y-123269333D02*
X58752771Y-123412190D01*
X58752771Y-123412190D02*
X58800390Y-123507428D01*
X58800390Y-123507428D02*
X58848009Y-123555047D01*
X58848009Y-123555047D02*
X58943247Y-123602666D01*
X58943247Y-123602666D02*
X59181342Y-123602666D01*
X59181342Y-123602666D02*
X59276580Y-123555047D01*
X59276580Y-123555047D02*
X59324200Y-123507428D01*
X59324200Y-123507428D02*
X59371819Y-123412190D01*
X59371819Y-123412190D02*
X59371819Y-123126476D01*
X59371819Y-123126476D02*
X59324200Y-123031238D01*
X59324200Y-123031238D02*
X59276580Y-122983619D01*
X131286819Y-120082666D02*
X132001104Y-120082666D01*
X132001104Y-120082666D02*
X132143961Y-120035047D01*
X132143961Y-120035047D02*
X132239200Y-119939809D01*
X132239200Y-119939809D02*
X132286819Y-119796952D01*
X132286819Y-119796952D02*
X132286819Y-119701714D01*
X132286819Y-121082666D02*
X132286819Y-120511238D01*
X132286819Y-120796952D02*
X131286819Y-120796952D01*
X131286819Y-120796952D02*
X131429676Y-120701714D01*
X131429676Y-120701714D02*
X131524914Y-120606476D01*
X131524914Y-120606476D02*
X131572533Y-120511238D01*
X81811333Y-56896819D02*
X81811333Y-57611104D01*
X81811333Y-57611104D02*
X81858952Y-57753961D01*
X81858952Y-57753961D02*
X81954190Y-57849200D01*
X81954190Y-57849200D02*
X82097047Y-57896819D01*
X82097047Y-57896819D02*
X82192285Y-57896819D01*
X81382761Y-56992057D02*
X81335142Y-56944438D01*
X81335142Y-56944438D02*
X81239904Y-56896819D01*
X81239904Y-56896819D02*
X81001809Y-56896819D01*
X81001809Y-56896819D02*
X80906571Y-56944438D01*
X80906571Y-56944438D02*
X80858952Y-56992057D01*
X80858952Y-56992057D02*
X80811333Y-57087295D01*
X80811333Y-57087295D02*
X80811333Y-57182533D01*
X80811333Y-57182533D02*
X80858952Y-57325390D01*
X80858952Y-57325390D02*
X81430380Y-57896819D01*
X81430380Y-57896819D02*
X80811333Y-57896819D01*
X123146819Y-61154666D02*
X123861104Y-61154666D01*
X123861104Y-61154666D02*
X124003961Y-61107047D01*
X124003961Y-61107047D02*
X124099200Y-61011809D01*
X124099200Y-61011809D02*
X124146819Y-60868952D01*
X124146819Y-60868952D02*
X124146819Y-60773714D01*
X123480152Y-62059428D02*
X124146819Y-62059428D01*
X123099200Y-61821333D02*
X123813485Y-61583238D01*
X123813485Y-61583238D02*
X123813485Y-62202285D01*
D11*
%TO.C,J3*%
X59717000Y-118836000D02*
X59717000Y-120086000D01*
X60007000Y-119126000D02*
X60007000Y-126746000D01*
X60007000Y-126746000D02*
X65977000Y-126746000D01*
X60017000Y-119136000D02*
X60017000Y-120936000D01*
X60017000Y-120936000D02*
X60767000Y-120936000D01*
X60017000Y-122436000D02*
X60017000Y-123436000D01*
X60017000Y-123436000D02*
X60767000Y-123436000D01*
X60017000Y-124936000D02*
X60017000Y-126736000D01*
X60017000Y-126736000D02*
X60767000Y-126736000D01*
X60767000Y-119136000D02*
X60017000Y-119136000D01*
X60767000Y-120936000D02*
X60767000Y-119136000D01*
X60767000Y-122436000D02*
X60017000Y-122436000D01*
X60767000Y-123436000D02*
X60767000Y-122436000D01*
X60767000Y-124936000D02*
X60017000Y-124936000D01*
X60767000Y-126736000D02*
X60767000Y-124936000D01*
X60967000Y-118836000D02*
X59717000Y-118836000D01*
X62267000Y-119886000D02*
X62267000Y-119136000D01*
X62267000Y-125986000D02*
X62267000Y-126736000D01*
X63607000Y-119886000D02*
X62267000Y-119886000D01*
X65217000Y-120946000D02*
X65217000Y-122936000D01*
X65217000Y-122936000D02*
X65217000Y-125986000D01*
X65217000Y-125986000D02*
X62267000Y-125986000D01*
X65977000Y-119126000D02*
X60007000Y-119126000D01*
X65977000Y-126746000D02*
X65977000Y-119126000D01*
%TO.C,J1*%
X132632000Y-116316000D02*
X132632000Y-117566000D01*
X132922000Y-116606000D02*
X132922000Y-124226000D01*
X132922000Y-124226000D02*
X138892000Y-124226000D01*
X132932000Y-116616000D02*
X132932000Y-118416000D01*
X132932000Y-118416000D02*
X133682000Y-118416000D01*
X132932000Y-119916000D02*
X132932000Y-120916000D01*
X132932000Y-120916000D02*
X133682000Y-120916000D01*
X132932000Y-122416000D02*
X132932000Y-124216000D01*
X132932000Y-124216000D02*
X133682000Y-124216000D01*
X133682000Y-116616000D02*
X132932000Y-116616000D01*
X133682000Y-118416000D02*
X133682000Y-116616000D01*
X133682000Y-119916000D02*
X132932000Y-119916000D01*
X133682000Y-120916000D02*
X133682000Y-119916000D01*
X133682000Y-122416000D02*
X132932000Y-122416000D01*
X133682000Y-124216000D02*
X133682000Y-122416000D01*
X133882000Y-116316000D02*
X132632000Y-116316000D01*
X135182000Y-117366000D02*
X135182000Y-116616000D01*
X135182000Y-123466000D02*
X135182000Y-124216000D01*
X136522000Y-117366000D02*
X135182000Y-117366000D01*
X138132000Y-118426000D02*
X138132000Y-120416000D01*
X138132000Y-120416000D02*
X138132000Y-123466000D01*
X138132000Y-123466000D02*
X135182000Y-123466000D01*
X138892000Y-116606000D02*
X132922000Y-116606000D01*
X138892000Y-124226000D02*
X138892000Y-116606000D01*
%TO.C,J2*%
X77668000Y-58532000D02*
X77668000Y-64502000D01*
X77668000Y-64502000D02*
X85288000Y-64502000D01*
X77678000Y-58542000D02*
X77678000Y-59292000D01*
X77678000Y-59292000D02*
X79478000Y-59292000D01*
X78428000Y-60792000D02*
X77678000Y-60792000D01*
X78428000Y-63742000D02*
X78428000Y-60792000D01*
X79478000Y-58542000D02*
X77678000Y-58542000D01*
X79478000Y-59292000D02*
X79478000Y-58542000D01*
X80978000Y-58542000D02*
X80978000Y-59292000D01*
X80978000Y-59292000D02*
X81978000Y-59292000D01*
X81478000Y-63742000D02*
X78428000Y-63742000D01*
X81978000Y-58542000D02*
X80978000Y-58542000D01*
X81978000Y-59292000D02*
X81978000Y-58542000D01*
X83468000Y-63742000D02*
X81478000Y-63742000D01*
X83478000Y-58542000D02*
X83478000Y-59292000D01*
X83478000Y-59292000D02*
X85278000Y-59292000D01*
X84528000Y-60792000D02*
X85278000Y-60792000D01*
X84528000Y-62132000D02*
X84528000Y-60792000D01*
X85278000Y-58542000D02*
X83478000Y-58542000D01*
X85278000Y-59292000D02*
X85278000Y-58542000D01*
X85288000Y-58532000D02*
X77668000Y-58532000D01*
X85288000Y-64502000D02*
X85288000Y-58532000D01*
X85578000Y-58242000D02*
X84328000Y-58242000D01*
X85578000Y-59492000D02*
X85578000Y-58242000D01*
%TO.C,J4*%
X116632000Y-57678000D02*
X116632000Y-65298000D01*
X116632000Y-65298000D02*
X122602000Y-65298000D01*
X117392000Y-58438000D02*
X120342000Y-58438000D01*
X117392000Y-61488000D02*
X117392000Y-58438000D01*
X117392000Y-63478000D02*
X117392000Y-61488000D01*
X119002000Y-64538000D02*
X120342000Y-64538000D01*
X120342000Y-58438000D02*
X120342000Y-57688000D01*
X120342000Y-64538000D02*
X120342000Y-65288000D01*
X121642000Y-65588000D02*
X122892000Y-65588000D01*
X121842000Y-57688000D02*
X121842000Y-59488000D01*
X121842000Y-59488000D02*
X122592000Y-59488000D01*
X121842000Y-60988000D02*
X121842000Y-61988000D01*
X121842000Y-61988000D02*
X122592000Y-61988000D01*
X121842000Y-63488000D02*
X121842000Y-65288000D01*
X121842000Y-65288000D02*
X122592000Y-65288000D01*
X122592000Y-57688000D02*
X121842000Y-57688000D01*
X122592000Y-59488000D02*
X122592000Y-57688000D01*
X122592000Y-60988000D02*
X121842000Y-60988000D01*
X122592000Y-61988000D02*
X122592000Y-60988000D01*
X122592000Y-63488000D02*
X121842000Y-63488000D01*
X122592000Y-65288000D02*
X122592000Y-63488000D01*
X122602000Y-57678000D02*
X116632000Y-57678000D01*
X122602000Y-65298000D02*
X122602000Y-57678000D01*
X122892000Y-65588000D02*
X122892000Y-64338000D01*
%TD*%
%LPC*%
D12*
%TO.C,U16*%
X97460000Y-154006000D03*
D13*
X100000000Y-154006000D03*
X102540000Y-154006000D03*
%TD*%
D14*
%TO.C,U28*%
X56911000Y-114036000D03*
D15*
X59451000Y-114036000D03*
X61991000Y-114036000D03*
X64531000Y-114036000D03*
X67071000Y-114036000D03*
X69611000Y-114036000D03*
X72151000Y-114036000D03*
X74691000Y-114036000D03*
X74691000Y-106416000D03*
X72151000Y-106416000D03*
X69611000Y-106416000D03*
X67071000Y-106416000D03*
X64531000Y-106416000D03*
X61991000Y-106416000D03*
X59451000Y-106416000D03*
X56911000Y-106416000D03*
%TD*%
D16*
%TO.C,U32*%
X48491605Y-83568795D03*
D13*
X47834204Y-86022247D03*
X47176804Y-88475699D03*
%TD*%
D17*
%TO.C,U35*%
X152823196Y-88475699D03*
D13*
X152165796Y-86022247D03*
X151508395Y-83568795D03*
%TD*%
D18*
%TO.C,U25*%
X116431205Y-48491605D03*
D13*
X113977753Y-47834204D03*
X111524301Y-47176804D03*
%TD*%
D19*
%TO.C,U11*%
X83871000Y-116921000D03*
X83871000Y-119461000D03*
X83871000Y-122001000D03*
X83871000Y-124541000D03*
X83871000Y-127081000D03*
X83871000Y-129621000D03*
X83871000Y-132161000D03*
X83871000Y-134701000D03*
X116129000Y-116921000D03*
X116129000Y-119461000D03*
X116129000Y-122001000D03*
X116129000Y-124541000D03*
X116129000Y-127081000D03*
X116129000Y-129621000D03*
X116129000Y-132161000D03*
X116129000Y-134701000D03*
%TD*%
D12*
%TO.C,U30*%
X45994000Y-97460000D03*
D13*
X45994000Y-100000000D03*
X45994000Y-102540000D03*
%TD*%
D20*
%TO.C,U24*%
X51959404Y-124803295D03*
D13*
X53229404Y-127003000D03*
X54499404Y-129202705D03*
%TD*%
D21*
%TO.C,U29*%
X129202705Y-54499404D03*
D13*
X127003000Y-53229404D03*
X124803295Y-51959404D03*
%TD*%
D22*
%TO.C,D1*%
X109831000Y-89642000D03*
D23*
X109831000Y-87102000D03*
%TD*%
D24*
%TO.C,U36*%
X63608009Y-60015906D03*
D13*
X61811957Y-61811957D03*
X60015906Y-63608009D03*
%TD*%
D25*
%TO.C,U13*%
X124803295Y-148040596D03*
D13*
X127003000Y-146770596D03*
X129202705Y-145500596D03*
%TD*%
D14*
%TO.C,U12*%
X121920000Y-117094000D03*
D15*
X121920000Y-119634000D03*
X121920000Y-122174000D03*
X121920000Y-124714000D03*
X121920000Y-127254000D03*
X121920000Y-129794000D03*
X121920000Y-132334000D03*
X121920000Y-134874000D03*
X129540000Y-134874000D03*
X129540000Y-132334000D03*
X129540000Y-129794000D03*
X129540000Y-127254000D03*
X129540000Y-124714000D03*
X129540000Y-122174000D03*
X129540000Y-119634000D03*
X129540000Y-117094000D03*
%TD*%
D26*
%TO.C,U31*%
X139984094Y-63608009D03*
D13*
X138188043Y-61811957D03*
X136391991Y-60015906D03*
%TD*%
D27*
%TO.C,U34*%
X54499404Y-70797295D03*
D13*
X53229404Y-72997000D03*
X51959404Y-75196705D03*
%TD*%
D28*
%TO.C,U17*%
X103000000Y-141000000D03*
X110100000Y-141000000D03*
%TD*%
D29*
%TO.C,U9*%
X145500596Y-129202705D03*
D13*
X146770596Y-127003000D03*
X148040596Y-124803295D03*
%TD*%
D30*
%TO.C,U19*%
X75196705Y-51959404D03*
D13*
X72997000Y-53229404D03*
X70797295Y-54499404D03*
%TD*%
D31*
%TO.C,U33*%
X148040596Y-75196705D03*
D13*
X146770596Y-72997000D03*
X145500596Y-70797295D03*
%TD*%
D32*
%TO.C,J7*%
X134366000Y-78460000D03*
D19*
X136906000Y-78460000D03*
X134366000Y-81000000D03*
X136906000Y-81000000D03*
X134366000Y-83540000D03*
X136906000Y-83540000D03*
X134366000Y-86080000D03*
X136906000Y-86080000D03*
X134366000Y-88620000D03*
X136906000Y-88620000D03*
%TD*%
D33*
%TO.C,SW1*%
X74672000Y-137160000D03*
D34*
X76672000Y-137160000D03*
X78672001Y-137160000D03*
D35*
X72571999Y-137160000D03*
X80772000Y-137160000D03*
%TD*%
D33*
%TO.C,SW2*%
X74672000Y-131572000D03*
D34*
X76672000Y-131572000D03*
X78672001Y-131572000D03*
D35*
X72571999Y-131572000D03*
X80772000Y-131572000D03*
%TD*%
D36*
%TO.C,R40*%
X105181000Y-89442000D03*
X105181000Y-86902000D03*
%TD*%
D37*
%TO.C,U26*%
X47176804Y-111524301D03*
D13*
X47834204Y-113977753D03*
X48491605Y-116431205D03*
%TD*%
D38*
%TO.C,U14*%
X111524301Y-152823196D03*
D13*
X113977753Y-152165796D03*
X116431205Y-151508395D03*
%TD*%
D39*
%TO.C,U15*%
X56810000Y-91542000D03*
X56810000Y-94082000D03*
X56810000Y-96622000D03*
X56810000Y-99162000D03*
X56810000Y-101702000D03*
X75270000Y-91542000D03*
X75270000Y-96622000D03*
X75270000Y-101702000D03*
X75270000Y-94082000D03*
X75270000Y-99162000D03*
%TD*%
D40*
%TO.C,U21*%
X88475699Y-47176804D03*
D13*
X86022247Y-47834204D03*
X83568795Y-48491605D03*
%TD*%
D41*
%TO.C,U18*%
X83568795Y-151508395D03*
D13*
X86022247Y-152165796D03*
X88475699Y-152823196D03*
%TD*%
D12*
%TO.C,U23*%
X102540000Y-45994000D03*
D13*
X100000000Y-45994000D03*
X97460000Y-45994000D03*
%TD*%
D12*
%TO.C,U6*%
X154006000Y-102540000D03*
D13*
X154006000Y-100000000D03*
X154006000Y-97460000D03*
%TD*%
D42*
%TO.C,U8*%
X151508395Y-116431205D03*
D13*
X152165796Y-113977753D03*
X152823196Y-111524301D03*
%TD*%
D33*
%TO.C,SW3*%
X74672000Y-125984000D03*
D34*
X76672000Y-125984000D03*
X78672001Y-125984000D03*
D35*
X72571999Y-125984000D03*
X80772000Y-125984000D03*
%TD*%
D43*
%TO.C,U10*%
X136391991Y-139984094D03*
D13*
X138188043Y-138188043D03*
X139984094Y-136391991D03*
%TD*%
D14*
%TO.C,U5*%
X68834000Y-83058000D03*
D36*
X71374000Y-83058000D03*
X73914000Y-83058000D03*
X76454000Y-83058000D03*
X78994000Y-83058000D03*
X81534000Y-83058000D03*
X84074000Y-83058000D03*
X86614000Y-83058000D03*
X89154000Y-83058000D03*
X91694000Y-83058000D03*
X94234000Y-83058000D03*
X96774000Y-83058000D03*
X99314000Y-83058000D03*
X101854000Y-83058000D03*
X104394000Y-83058000D03*
X106934000Y-83058000D03*
X109474000Y-83058000D03*
X112014000Y-83058000D03*
X114554000Y-83058000D03*
X117094000Y-83058000D03*
X119634000Y-83058000D03*
X122174000Y-83058000D03*
X124714000Y-83058000D03*
X127254000Y-83058000D03*
X127254000Y-67818000D03*
X124714000Y-67818000D03*
X122174000Y-67818000D03*
X119634000Y-67818000D03*
X117094000Y-67818000D03*
X114554000Y-67818000D03*
X112014000Y-67818000D03*
X109474000Y-67818000D03*
X106934000Y-67818000D03*
X104394000Y-67818000D03*
X101854000Y-67818000D03*
X99314000Y-67818000D03*
X96774000Y-67818000D03*
X94234000Y-67818000D03*
X91694000Y-67818000D03*
X89154000Y-67818000D03*
X86614000Y-67818000D03*
X84074000Y-67818000D03*
X81534000Y-67818000D03*
X78994000Y-67818000D03*
X76454000Y-67818000D03*
X73914000Y-67818000D03*
X71374000Y-67818000D03*
X68834000Y-67818000D03*
%TD*%
D44*
%TO.C,J6*%
X120137000Y-139192000D03*
D45*
X122677000Y-139192000D03*
%TD*%
D46*
%TO.C,U20*%
X70797295Y-145500596D03*
D13*
X72997000Y-146770596D03*
X75196705Y-148040596D03*
%TD*%
D47*
%TO.C,U22*%
X60015906Y-136391991D03*
D13*
X61811957Y-138188043D03*
X63608009Y-139984094D03*
%TD*%
D33*
%TO.C,SW4*%
X74672000Y-120396000D03*
D34*
X76672000Y-120396000D03*
X78672001Y-120396000D03*
D35*
X72571999Y-120396000D03*
X80772000Y-120396000D03*
%TD*%
D14*
%TO.C,U27*%
X90932000Y-61976000D03*
D15*
X93472000Y-61976000D03*
X96012000Y-61976000D03*
X98552000Y-61976000D03*
X101092000Y-61976000D03*
X103632000Y-61976000D03*
X106172000Y-61976000D03*
X108712000Y-61976000D03*
X108712000Y-54356000D03*
X106172000Y-54356000D03*
X103632000Y-54356000D03*
X101092000Y-54356000D03*
X98552000Y-54356000D03*
X96012000Y-54356000D03*
X93472000Y-54356000D03*
X90932000Y-54356000D03*
%TD*%
D48*
%TO.C,U7*%
X121652000Y-98806000D03*
D49*
X126652000Y-98806000D03*
X131652000Y-98806000D03*
X136652000Y-98806000D03*
%TD*%
D50*
%TO.C,J3*%
X64467000Y-120086000D03*
D51*
X62467000Y-121686000D03*
D52*
X62467000Y-124186000D03*
%TD*%
D50*
%TO.C,J1*%
X137382000Y-117566000D03*
D51*
X135382000Y-119166000D03*
D52*
X135382000Y-121666000D03*
%TD*%
D50*
%TO.C,J2*%
X84328000Y-62992000D03*
D53*
X82728000Y-60992000D03*
D54*
X80228000Y-60992000D03*
%TD*%
D50*
%TO.C,J4*%
X118142000Y-64338000D03*
D55*
X120142000Y-62738000D03*
D52*
X120142000Y-60238000D03*
%TD*%
%LPD*%
M02*
