%TF.GenerationSoftware,KiCad,Pcbnew,8.0.4*%
%TF.CreationDate,2024-12-12T22:54:30-05:00*%
%TF.ProjectId,Roboballers Pcb,526f626f-6261-46c6-9c65-727320506362,rev?*%
%TF.SameCoordinates,Original*%
%TF.FileFunction,Paste,Top*%
%TF.FilePolarity,Positive*%
%FSLAX46Y46*%
G04 Gerber Fmt 4.6, Leading zero omitted, Abs format (unit mm)*
G04 Created by KiCad (PCBNEW 8.0.4) date 2024-12-12 22:54:30*
%MOMM*%
%LPD*%
G01*
G04 APERTURE LIST*
G04 Aperture macros list*
%AMRoundRect*
0 Rectangle with rounded corners*
0 $1 Rounding radius*
0 $2 $3 $4 $5 $6 $7 $8 $9 X,Y pos of 4 corners*
0 Add a 4 corners polygon primitive as box body*
4,1,4,$2,$3,$4,$5,$6,$7,$8,$9,$2,$3,0*
0 Add four circle primitives for the rounded corners*
1,1,$1+$1,$2,$3*
1,1,$1+$1,$4,$5*
1,1,$1+$1,$6,$7*
1,1,$1+$1,$8,$9*
0 Add four rect primitives between the rounded corners*
20,1,$1+$1,$2,$3,$4,$5,0*
20,1,$1+$1,$4,$5,$6,$7,0*
20,1,$1+$1,$6,$7,$8,$9,0*
20,1,$1+$1,$8,$9,$2,$3,0*%
G04 Aperture macros list end*
%ADD10RoundRect,0.250000X0.525253X-0.221605X0.344080X0.454543X-0.525253X0.221605X-0.344080X-0.454543X0*%
%ADD11RoundRect,0.237500X0.382522X0.009131X-0.096660X0.370220X-0.382522X-0.009131X0.096660X-0.370220X0*%
%ADD12RoundRect,0.250000X-0.070711X0.565685X-0.565685X0.070711X0.070711X-0.565685X0.565685X-0.070711X0*%
%ADD13RoundRect,0.250000X0.350000X0.450000X-0.350000X0.450000X-0.350000X-0.450000X0.350000X-0.450000X0*%
%ADD14RoundRect,0.250000X-0.350000X-0.450000X0.350000X-0.450000X0.350000X0.450000X-0.350000X0.450000X0*%
%ADD15R,1.663700X0.558800*%
%ADD16RoundRect,0.250000X0.528109X0.214711X-0.078109X0.564711X-0.528109X-0.214711X0.078109X-0.564711X0*%
%ADD17RoundRect,0.237500X-0.237500X0.300000X-0.237500X-0.300000X0.237500X-0.300000X0.237500X0.300000X0*%
%ADD18RoundRect,0.250000X-0.565685X-0.070711X-0.070711X-0.565685X0.565685X0.070711X0.070711X0.565685X0*%
%ADD19RoundRect,0.237500X0.009131X-0.382522X0.370220X0.096660X-0.009131X0.382522X-0.370220X-0.096660X0*%
%ADD20RoundRect,0.250000X0.450000X-0.350000X0.450000X0.350000X-0.450000X0.350000X-0.450000X-0.350000X0*%
%ADD21RoundRect,0.237500X0.264027X0.276941X-0.330134X0.193437X-0.264027X-0.276941X0.330134X-0.193437X0*%
%ADD22RoundRect,0.237500X-0.264027X-0.276941X0.330134X-0.193437X0.264027X0.276941X-0.330134X0.193437X0*%
%ADD23RoundRect,0.237500X0.367124X0.107824X-0.189186X0.332588X-0.367124X-0.107824X0.189186X-0.332588X0*%
%ADD24RoundRect,0.250000X0.564711X-0.078109X0.214711X0.528109X-0.564711X0.078109X-0.214711X-0.528109X0*%
%ADD25RoundRect,0.250000X0.565685X0.070711X0.070711X0.565685X-0.565685X-0.070711X-0.070711X-0.565685X0*%
%ADD26RoundRect,0.250000X-0.078109X-0.564711X0.528109X-0.214711X0.078109X0.564711X-0.528109X0.214711X0*%
%ADD27RoundRect,0.237500X-0.276941X0.264027X-0.193437X-0.330134X0.276941X-0.264027X0.193437X0.330134X0*%
%ADD28RoundRect,0.237500X-0.199169X0.326708X-0.272291X-0.268820X0.199169X-0.326708X0.272291X0.268820X0*%
%ADD29RoundRect,0.237500X-0.371851X0.090184X-0.002454X-0.382623X0.371851X-0.090184X0.002454X0.382623X0*%
%ADD30RoundRect,0.250000X0.070711X-0.565685X0.565685X-0.070711X-0.070711X0.565685X-0.565685X0.070711X0*%
%ADD31RoundRect,0.237500X-0.090184X-0.371851X0.382623X-0.002454X0.090184X0.371851X-0.382623X0.002454X0*%
%ADD32RoundRect,0.237500X-0.300000X-0.237500X0.300000X-0.237500X0.300000X0.237500X-0.300000X0.237500X0*%
%ADD33RoundRect,0.250000X0.344080X-0.454543X0.525253X0.221605X-0.344080X0.454543X-0.525253X-0.221605X0*%
%ADD34RoundRect,0.250000X-0.528109X-0.214711X0.078109X-0.564711X0.528109X0.214711X-0.078109X0.564711X0*%
%ADD35RoundRect,0.250000X0.214711X-0.528109X0.564711X0.078109X-0.214711X0.528109X-0.564711X-0.078109X0*%
%ADD36RoundRect,0.250000X-0.525253X0.221605X-0.344080X-0.454543X0.525253X-0.221605X0.344080X0.454543X0*%
%ADD37RoundRect,0.250000X-0.450000X0.350000X-0.450000X-0.350000X0.450000X-0.350000X0.450000X0.350000X0*%
%ADD38RoundRect,0.237500X0.371851X-0.090184X0.002454X0.382623X-0.371851X0.090184X-0.002454X-0.382623X0*%
%ADD39RoundRect,1.000000X-1.000000X-1.000000X1.000000X-1.000000X1.000000X1.000000X-1.000000X1.000000X0*%
%ADD40RoundRect,0.250000X-0.564711X0.078109X-0.214711X-0.528109X0.564711X-0.078109X0.214711X0.528109X0*%
%ADD41RoundRect,0.250000X0.078109X0.564711X-0.528109X0.214711X-0.078109X-0.564711X0.528109X-0.214711X0*%
%ADD42R,0.558800X1.663700*%
%ADD43RoundRect,0.237500X-0.335839X0.183353X-0.101401X-0.368950X0.335839X-0.183353X0.101401X0.368950X0*%
%ADD44RoundRect,0.237500X0.199169X-0.326708X0.272291X0.268820X-0.199169X0.326708X-0.272291X-0.268820X0*%
%ADD45RoundRect,0.237500X0.326708X0.199169X-0.268820X0.272291X-0.326708X-0.199169X0.268820X-0.272291X0*%
%ADD46RoundRect,0.237500X0.300000X0.237500X-0.300000X0.237500X-0.300000X-0.237500X0.300000X-0.237500X0*%
%ADD47RoundRect,0.237500X0.335839X-0.183353X0.101401X0.368950X-0.335839X0.183353X-0.101401X-0.368950X0*%
%ADD48RoundRect,0.237500X0.107824X-0.367124X0.332588X0.189186X-0.107824X0.367124X-0.332588X-0.189186X0*%
%ADD49RoundRect,0.237500X0.276941X-0.264027X0.193437X0.330134X-0.276941X0.264027X-0.193437X-0.330134X0*%
%ADD50RoundRect,0.250000X-0.214711X0.528109X-0.564711X-0.078109X0.214711X-0.528109X0.564711X0.078109X0*%
%ADD51RoundRect,0.250000X-0.221605X-0.525253X0.454543X-0.344080X0.221605X0.525253X-0.454543X0.344080X0*%
%ADD52RoundRect,0.237500X0.090184X0.371851X-0.382623X0.002454X-0.090184X-0.371851X0.382623X-0.002454X0*%
%ADD53RoundRect,0.237500X-0.183353X-0.335839X0.368950X-0.101401X0.183353X0.335839X-0.368950X0.101401X0*%
%ADD54RoundRect,0.237500X0.183353X0.335839X-0.368950X0.101401X-0.183353X-0.335839X0.368950X-0.101401X0*%
%ADD55RoundRect,0.237500X-0.367124X-0.107824X0.189186X-0.332588X0.367124X0.107824X-0.189186X0.332588X0*%
%ADD56RoundRect,0.250000X-0.454543X-0.344080X0.221605X-0.525253X0.454543X0.344080X-0.221605X0.525253X0*%
%ADD57RoundRect,0.237500X-0.009131X0.382522X-0.370220X-0.096660X0.009131X-0.382522X0.370220X0.096660X0*%
%ADD58RoundRect,0.250000X0.454543X0.344080X-0.221605X0.525253X-0.454543X-0.344080X0.221605X-0.525253X0*%
%ADD59RoundRect,0.237500X-0.382522X-0.009131X0.096660X-0.370220X0.382522X0.009131X-0.096660X0.370220X0*%
%ADD60RoundRect,0.237500X-0.326708X-0.199169X0.268820X-0.272291X0.326708X0.199169X-0.268820X0.272291X0*%
%ADD61RoundRect,0.250000X-0.344080X0.454543X-0.525253X-0.221605X0.344080X-0.454543X0.525253X0.221605X0*%
%ADD62RoundRect,0.237500X-0.107824X0.367124X-0.332588X-0.189186X0.107824X-0.367124X0.332588X0.189186X0*%
%ADD63RoundRect,0.250000X0.221605X0.525253X-0.454543X0.344080X-0.221605X-0.525253X0.454543X-0.344080X0*%
G04 APERTURE END LIST*
D10*
%TO.C,R24*%
X87317819Y-52669626D03*
X86800181Y-50737774D03*
%TD*%
D11*
%TO.C,C26*%
X61021123Y-70080966D03*
X59643477Y-69042834D03*
%TD*%
D12*
%TO.C,R25*%
X65351807Y-134648193D03*
X63937593Y-136062407D03*
%TD*%
D13*
%TO.C,R7*%
X127000000Y-91186000D03*
X125000000Y-91186000D03*
%TD*%
D14*
%TO.C,R10*%
X66000000Y-75000000D03*
X68000000Y-75000000D03*
%TD*%
D15*
%TO.C,U3*%
X98075750Y-129921000D03*
X98075750Y-128651000D03*
X98075750Y-127381000D03*
X98075750Y-126111000D03*
X98075750Y-124841000D03*
X98075750Y-123571000D03*
X98075750Y-122301000D03*
X98075750Y-121031000D03*
X92424250Y-121031000D03*
X92424250Y-122301000D03*
X92424250Y-123571000D03*
X92424250Y-124841000D03*
X92424250Y-126111000D03*
X92424250Y-127381000D03*
X92424250Y-128651000D03*
X92424250Y-129921000D03*
%TD*%
D16*
%TO.C,R37*%
X57564725Y-75500000D03*
X55832675Y-74500000D03*
%TD*%
D17*
%TO.C,C2*%
X87122000Y-60859500D03*
X87122000Y-62584500D03*
%TD*%
D18*
%TO.C,R17*%
X134648193Y-134648193D03*
X136062407Y-136062407D03*
%TD*%
D19*
%TO.C,C21*%
X129919034Y-61021123D03*
X130957166Y-59643477D03*
%TD*%
D20*
%TO.C,R28*%
X130810000Y-68548000D03*
X130810000Y-66548000D03*
%TD*%
D21*
%TO.C,C20*%
X51281906Y-106406263D03*
X49573694Y-106646337D03*
%TD*%
D22*
%TO.C,C27*%
X148718094Y-93593737D03*
X150426306Y-93353663D03*
%TD*%
D23*
%TO.C,C24*%
X54605696Y-81188898D03*
X53006304Y-80542702D03*
%TD*%
D24*
%TO.C,R22*%
X75500000Y-57564725D03*
X74500000Y-55832675D03*
%TD*%
D25*
%TO.C,R39*%
X65351807Y-65351807D03*
X63937593Y-63937593D03*
%TD*%
D26*
%TO.C,R36*%
X142435275Y-75500000D03*
X144167325Y-74500000D03*
%TD*%
D14*
%TO.C,R2*%
X140748000Y-118872000D03*
X142748000Y-118872000D03*
%TD*%
D27*
%TO.C,C10*%
X106406263Y-148718094D03*
X106646337Y-150426306D03*
%TD*%
D28*
%TO.C,C11*%
X93578812Y-148716129D03*
X93368588Y-150428271D03*
%TD*%
D14*
%TO.C,R16*%
X133636000Y-131318000D03*
X135636000Y-131318000D03*
%TD*%
D29*
%TO.C,C8*%
X129907092Y-138988041D03*
X130969108Y-140347359D03*
%TD*%
D30*
%TO.C,R34*%
X134648193Y-65351807D03*
X136062407Y-63937593D03*
%TD*%
D31*
%TO.C,C23*%
X138988041Y-70092908D03*
X140347359Y-69030892D03*
%TD*%
D32*
%TO.C,C1*%
X133137500Y-127500000D03*
X134862500Y-127500000D03*
%TD*%
D33*
%TO.C,R29*%
X112682181Y-52669626D03*
X113199819Y-50737774D03*
%TD*%
D34*
%TO.C,R15*%
X142435275Y-124500000D03*
X144167325Y-125500000D03*
%TD*%
D35*
%TO.C,R32*%
X124500000Y-57564725D03*
X125500000Y-55832675D03*
%TD*%
D36*
%TO.C,R19*%
X112682181Y-147330374D03*
X113199819Y-149262226D03*
%TD*%
D37*
%TO.C,R20*%
X100000000Y-149000000D03*
X100000000Y-151000000D03*
%TD*%
D38*
%TO.C,C28*%
X70092908Y-61011959D03*
X69030892Y-59652641D03*
%TD*%
D13*
%TO.C,R8*%
X126968000Y-87630000D03*
X124968000Y-87630000D03*
%TD*%
D39*
%TO.C,J5*%
X85000000Y-140000000D03*
X93000000Y-140000000D03*
%TD*%
D40*
%TO.C,R18*%
X124500000Y-142435275D03*
X125500000Y-144167325D03*
%TD*%
D41*
%TO.C,R27*%
X57564725Y-124500000D03*
X55832675Y-125500000D03*
%TD*%
D42*
%TO.C,U4*%
X116078000Y-77723950D03*
X117348000Y-77723950D03*
X118618000Y-77723950D03*
X119888000Y-77723950D03*
X121158000Y-77723950D03*
X122428000Y-77723950D03*
X123698000Y-77723950D03*
X124968000Y-77723950D03*
X124968000Y-72072450D03*
X123698000Y-72072450D03*
X122428000Y-72072450D03*
X121158000Y-72072450D03*
X119888000Y-72072450D03*
X118618000Y-72072450D03*
X117348000Y-72072450D03*
X116078000Y-72072450D03*
%TD*%
D43*
%TO.C,C9*%
X118797195Y-145400065D03*
X119471205Y-146987935D03*
%TD*%
D44*
%TO.C,C17*%
X106421188Y-51283871D03*
X106631412Y-49571729D03*
%TD*%
D45*
%TO.C,C22*%
X51283871Y-93578812D03*
X49571729Y-93368588D03*
%TD*%
D14*
%TO.C,R3*%
X63532000Y-82042000D03*
X65532000Y-82042000D03*
%TD*%
D46*
%TO.C,C3*%
X66495000Y-129286000D03*
X64770000Y-129286000D03*
%TD*%
D13*
%TO.C,R5*%
X112268000Y-124206000D03*
X110268000Y-124206000D03*
%TD*%
D42*
%TO.C,U2*%
X76149200Y-78600250D03*
X77419200Y-78600250D03*
X78689200Y-78600250D03*
X79959200Y-78600250D03*
X81229200Y-78600250D03*
X82499200Y-78600250D03*
X83769200Y-78600250D03*
X85039200Y-78600250D03*
X85039200Y-72948750D03*
X83769200Y-72948750D03*
X82499200Y-72948750D03*
X81229200Y-72948750D03*
X79959200Y-72948750D03*
X78689200Y-72948750D03*
X77419200Y-72948750D03*
X76149200Y-72948750D03*
%TD*%
D47*
%TO.C,C13*%
X81202805Y-54599935D03*
X80528795Y-53012065D03*
%TD*%
D14*
%TO.C,R1*%
X126500000Y-109000000D03*
X128500000Y-109000000D03*
%TD*%
D13*
%TO.C,R30*%
X95250000Y-87122000D03*
X93250000Y-87122000D03*
%TD*%
%TO.C,R33*%
X51000000Y-100000000D03*
X49000000Y-100000000D03*
%TD*%
D48*
%TO.C,C19*%
X118811102Y-54605696D03*
X119457298Y-53006304D03*
%TD*%
D14*
%TO.C,R12*%
X111030000Y-71628000D03*
X113030000Y-71628000D03*
%TD*%
D49*
%TO.C,C15*%
X93593737Y-51281906D03*
X93353663Y-49573694D03*
%TD*%
D50*
%TO.C,R23*%
X75500000Y-142435275D03*
X74500000Y-144167325D03*
%TD*%
D51*
%TO.C,R38*%
X147330374Y-87317819D03*
X149262226Y-86800181D03*
%TD*%
D14*
%TO.C,R9*%
X126500000Y-106500000D03*
X128500000Y-106500000D03*
%TD*%
D52*
%TO.C,C16*%
X61011959Y-129907092D03*
X59652641Y-130969108D03*
%TD*%
D14*
%TO.C,R13*%
X149000000Y-100000000D03*
X151000000Y-100000000D03*
%TD*%
D53*
%TO.C,C25*%
X145400065Y-81202805D03*
X146987935Y-80528795D03*
%TD*%
D54*
%TO.C,C18*%
X54599935Y-118797195D03*
X53012065Y-119471205D03*
%TD*%
D55*
%TO.C,C6*%
X145394304Y-118811102D03*
X146993696Y-119457298D03*
%TD*%
D56*
%TO.C,R14*%
X147330374Y-112682181D03*
X149262226Y-113199819D03*
%TD*%
D42*
%TO.C,U1*%
X133350000Y-113061750D03*
X134620000Y-113061750D03*
X135890000Y-113061750D03*
X137160000Y-113061750D03*
X138430000Y-113061750D03*
X139700000Y-113061750D03*
X140970000Y-113061750D03*
X142240000Y-113061750D03*
X142240000Y-107410250D03*
X140970000Y-107410250D03*
X139700000Y-107410250D03*
X138430000Y-107410250D03*
X137160000Y-107410250D03*
X135890000Y-107410250D03*
X134620000Y-107410250D03*
X133350000Y-107410250D03*
%TD*%
D57*
%TO.C,C14*%
X70080966Y-138978877D03*
X69042834Y-140356523D03*
%TD*%
D58*
%TO.C,R35*%
X52669626Y-87317819D03*
X50737774Y-86800181D03*
%TD*%
D59*
%TO.C,C7*%
X138978877Y-129919034D03*
X140356523Y-130957166D03*
%TD*%
D60*
%TO.C,C5*%
X148716129Y-106421188D03*
X150428271Y-106631412D03*
%TD*%
D61*
%TO.C,R21*%
X87317819Y-147330374D03*
X86800181Y-149262226D03*
%TD*%
D20*
%TO.C,R26*%
X100000000Y-51000000D03*
X100000000Y-49000000D03*
%TD*%
D32*
%TO.C,C4*%
X111051000Y-80518000D03*
X112776000Y-80518000D03*
%TD*%
D14*
%TO.C,R6*%
X110268000Y-128016000D03*
X112268000Y-128016000D03*
%TD*%
D62*
%TO.C,C12*%
X81188898Y-145394304D03*
X80542702Y-146993696D03*
%TD*%
D13*
%TO.C,R4*%
X86328000Y-87040000D03*
X84328000Y-87040000D03*
%TD*%
D63*
%TO.C,R31*%
X52669626Y-112682181D03*
X50737774Y-113199819D03*
%TD*%
D14*
%TO.C,R11*%
X89154000Y-87122000D03*
X91154000Y-87122000D03*
%TD*%
M02*
