%TF.GenerationSoftware,KiCad,Pcbnew,8.0.4*%
%TF.CreationDate,2024-12-12T22:54:30-05:00*%
%TF.ProjectId,Roboballers Pcb,526f626f-6261-46c6-9c65-727320506362,rev?*%
%TF.SameCoordinates,Original*%
%TF.FileFunction,Soldermask,Top*%
%TF.FilePolarity,Negative*%
%FSLAX46Y46*%
G04 Gerber Fmt 4.6, Leading zero omitted, Abs format (unit mm)*
G04 Created by KiCad (PCBNEW 8.0.4) date 2024-12-12 22:54:30*
%MOMM*%
%LPD*%
G01*
G04 APERTURE LIST*
G04 Aperture macros list*
%AMRoundRect*
0 Rectangle with rounded corners*
0 $1 Rounding radius*
0 $2 $3 $4 $5 $6 $7 $8 $9 X,Y pos of 4 corners*
0 Add a 4 corners polygon primitive as box body*
4,1,4,$2,$3,$4,$5,$6,$7,$8,$9,$2,$3,0*
0 Add four circle primitives for the rounded corners*
1,1,$1+$1,$2,$3*
1,1,$1+$1,$4,$5*
1,1,$1+$1,$6,$7*
1,1,$1+$1,$8,$9*
0 Add four rect primitives between the rounded corners*
20,1,$1+$1,$2,$3,$4,$5,0*
20,1,$1+$1,$4,$5,$6,$7,0*
20,1,$1+$1,$6,$7,$8,$9,0*
20,1,$1+$1,$8,$9,$2,$3,0*%
%AMRotRect*
0 Rectangle, with rotation*
0 The origin of the aperture is its center*
0 $1 length*
0 $2 width*
0 $3 Rotation angle, in degrees counterclockwise*
0 Add horizontal line*
21,1,$1,$2,0,0,$3*%
G04 Aperture macros list end*
%ADD10R,1.219200X1.219200*%
%ADD11C,1.219200*%
%ADD12RoundRect,0.250000X0.525253X-0.221605X0.344080X0.454543X-0.525253X0.221605X-0.344080X-0.454543X0*%
%ADD13RoundRect,0.237500X0.382522X0.009131X-0.096660X0.370220X-0.382522X-0.009131X0.096660X-0.370220X0*%
%ADD14RoundRect,0.250000X-0.070711X0.565685X-0.565685X0.070711X0.070711X-0.565685X0.565685X-0.070711X0*%
%ADD15R,1.600000X1.600000*%
%ADD16O,1.600000X1.600000*%
%ADD17RoundRect,0.250000X0.350000X0.450000X-0.350000X0.450000X-0.350000X-0.450000X0.350000X-0.450000X0*%
%ADD18RoundRect,0.250000X-0.350000X-0.450000X0.350000X-0.450000X0.350000X0.450000X-0.350000X0.450000X0*%
%ADD19R,1.663700X0.558800*%
%ADD20RoundRect,0.250000X0.528109X0.214711X-0.078109X0.564711X-0.528109X-0.214711X0.078109X-0.564711X0*%
%ADD21RotRect,1.219200X1.219200X255.000000*%
%ADD22RoundRect,0.237500X-0.237500X0.300000X-0.237500X-0.300000X0.237500X-0.300000X0.237500X0.300000X0*%
%ADD23RoundRect,0.250000X-0.565685X-0.070711X-0.070711X-0.565685X0.565685X0.070711X0.070711X0.565685X0*%
%ADD24RoundRect,0.237500X0.009131X-0.382522X0.370220X0.096660X-0.009131X0.382522X-0.370220X-0.096660X0*%
%ADD25RotRect,1.219200X1.219200X105.000000*%
%ADD26RotRect,1.219200X1.219200X165.000000*%
%ADD27RoundRect,0.250000X0.450000X-0.350000X0.450000X0.350000X-0.450000X0.350000X-0.450000X-0.350000X0*%
%ADD28C,1.700000*%
%ADD29RoundRect,0.237500X0.264027X0.276941X-0.330134X0.193437X-0.264027X-0.276941X0.330134X-0.193437X0*%
%ADD30RoundRect,0.237500X-0.264027X-0.276941X0.330134X-0.193437X0.264027X0.276941X-0.330134X0.193437X0*%
%ADD31RoundRect,0.237500X0.367124X0.107824X-0.189186X0.332588X-0.367124X-0.107824X0.189186X-0.332588X0*%
%ADD32RoundRect,0.250000X0.564711X-0.078109X0.214711X0.528109X-0.564711X0.078109X-0.214711X-0.528109X0*%
%ADD33RoundRect,0.250000X0.565685X0.070711X0.070711X0.565685X-0.565685X-0.070711X-0.070711X-0.565685X0*%
%ADD34RotRect,1.219200X1.219200X300.000000*%
%ADD35RotRect,1.219200X1.219200X150.000000*%
%ADD36RoundRect,0.250000X-0.078109X-0.564711X0.528109X-0.214711X0.078109X0.564711X-0.528109X0.214711X0*%
%ADD37R,1.800000X1.800000*%
%ADD38C,1.800000*%
%ADD39RotRect,1.219200X1.219200X225.000000*%
%ADD40RotRect,1.219200X1.219200X30.000000*%
%ADD41RotRect,1.219200X1.219200X135.000000*%
%ADD42RoundRect,0.237500X-0.276941X0.264027X-0.193437X-0.330134X0.276941X-0.264027X0.193437X0.330134X0*%
%ADD43RoundRect,0.237500X-0.199169X0.326708X-0.272291X-0.268820X0.199169X-0.326708X0.272291X0.268820X0*%
%ADD44RotRect,1.219200X1.219200X240.000000*%
%ADD45RoundRect,0.237500X-0.371851X0.090184X-0.002454X-0.382623X0.371851X-0.090184X0.002454X0.382623X0*%
%ADD46O,2.000000X6.000000*%
%ADD47RoundRect,0.250000X0.070711X-0.565685X0.565685X-0.070711X-0.070711X0.565685X-0.565685X0.070711X0*%
%ADD48RoundRect,0.237500X-0.090184X-0.371851X0.382623X-0.002454X0.090184X0.371851X-0.382623X0.002454X0*%
%ADD49RoundRect,0.237500X-0.300000X-0.237500X0.300000X-0.237500X0.300000X0.237500X-0.300000X0.237500X0*%
%ADD50RoundRect,0.250000X0.344080X-0.454543X0.525253X0.221605X-0.344080X0.454543X-0.525253X-0.221605X0*%
%ADD51RoundRect,0.250000X-0.528109X-0.214711X0.078109X-0.564711X0.528109X0.214711X-0.078109X0.564711X0*%
%ADD52RoundRect,0.250000X0.214711X-0.528109X0.564711X0.078109X-0.214711X0.528109X-0.564711X-0.078109X0*%
%ADD53RoundRect,0.250000X-0.525253X0.221605X-0.344080X-0.454543X0.525253X-0.221605X0.344080X0.454543X0*%
%ADD54RotRect,1.219200X1.219200X60.000000*%
%ADD55RoundRect,0.250000X-0.450000X0.350000X-0.450000X-0.350000X0.450000X-0.350000X0.450000X0.350000X0*%
%ADD56RotRect,1.219200X1.219200X210.000000*%
%ADD57RoundRect,0.237500X0.371851X-0.090184X0.002454X0.382623X-0.371851X0.090184X-0.002454X-0.382623X0*%
%ADD58RotRect,1.219200X1.219200X120.000000*%
%ADD59RoundRect,0.250000X-0.600000X-0.600000X0.600000X-0.600000X0.600000X0.600000X-0.600000X0.600000X0*%
%ADD60RoundRect,1.000000X-1.000000X-1.000000X1.000000X-1.000000X1.000000X1.000000X-1.000000X1.000000X0*%
%ADD61RoundRect,0.250000X-0.564711X0.078109X-0.214711X-0.528109X0.564711X-0.078109X0.214711X0.528109X0*%
%ADD62RoundRect,0.250000X0.078109X0.564711X-0.528109X0.214711X-0.078109X-0.564711X0.528109X-0.214711X0*%
%ADD63R,1.295400X1.295400*%
%ADD64C,1.295400*%
%ADD65C,1.498600*%
%ADD66R,0.558800X1.663700*%
%ADD67RoundRect,0.237500X-0.335839X0.183353X-0.101401X-0.368950X0.335839X-0.183353X0.101401X0.368950X0*%
%ADD68RoundRect,0.237500X0.199169X-0.326708X0.272291X0.268820X-0.199169X0.326708X-0.272291X-0.268820X0*%
%ADD69C,1.600000*%
%ADD70RotRect,1.219200X1.219200X285.000000*%
%ADD71RoundRect,0.237500X0.326708X0.199169X-0.268820X0.272291X-0.326708X-0.199169X0.268820X-0.272291X0*%
%ADD72RoundRect,0.237500X0.300000X0.237500X-0.300000X0.237500X-0.300000X-0.237500X0.300000X-0.237500X0*%
%ADD73RoundRect,0.237500X0.335839X-0.183353X0.101401X0.368950X-0.335839X0.183353X-0.101401X-0.368950X0*%
%ADD74RotRect,1.219200X1.219200X15.000000*%
%ADD75C,1.524000*%
%ADD76RotRect,1.219200X1.219200X195.000000*%
%ADD77RotRect,1.219200X1.219200X345.000000*%
%ADD78RoundRect,0.237500X0.107824X-0.367124X0.332588X0.189186X-0.107824X0.367124X-0.332588X-0.189186X0*%
%ADD79RoundRect,0.237500X0.276941X-0.264027X0.193437X0.330134X-0.276941X0.264027X-0.193437X-0.330134X0*%
%ADD80RoundRect,0.250000X-0.214711X0.528109X-0.564711X-0.078109X0.214711X-0.528109X0.564711X0.078109X0*%
%ADD81RoundRect,0.250000X-0.221605X-0.525253X0.454543X-0.344080X0.221605X0.525253X-0.454543X0.344080X0*%
%ADD82RoundRect,0.237500X0.090184X0.371851X-0.382623X0.002454X-0.090184X-0.371851X0.382623X-0.002454X0*%
%ADD83RoundRect,0.237500X-0.183353X-0.335839X0.368950X-0.101401X0.183353X0.335839X-0.368950X0.101401X0*%
%ADD84RoundRect,0.237500X0.183353X0.335839X-0.368950X0.101401X-0.183353X-0.335839X0.368950X-0.101401X0*%
%ADD85RotRect,1.219200X1.219200X75.000000*%
%ADD86RoundRect,0.237500X-0.367124X-0.107824X0.189186X-0.332588X0.367124X0.107824X-0.189186X0.332588X0*%
%ADD87RotRect,1.219200X1.219200X45.000000*%
%ADD88RoundRect,0.250000X-0.454543X-0.344080X0.221605X-0.525253X0.454543X0.344080X-0.221605X0.525253X0*%
%ADD89RoundRect,0.237500X-0.009131X0.382522X-0.370220X-0.096660X0.009131X-0.382522X0.370220X0.096660X0*%
%ADD90R,1.700000X1.700000*%
%ADD91O,1.700000X1.700000*%
%ADD92RoundRect,0.250000X0.454543X0.344080X-0.221605X0.525253X-0.454543X-0.344080X0.221605X-0.525253X0*%
%ADD93RoundRect,0.237500X-0.382522X-0.009131X0.096660X-0.370220X0.382522X0.009131X-0.096660X0.370220X0*%
%ADD94RotRect,1.219200X1.219200X330.000000*%
%ADD95RotRect,1.219200X1.219200X315.000000*%
%ADD96RoundRect,0.237500X-0.326708X-0.199169X0.268820X-0.272291X0.326708X0.199169X-0.268820X0.272291X0*%
%ADD97RoundRect,0.250000X-0.344080X0.454543X-0.525253X-0.221605X0.344080X-0.454543X0.525253X0.221605X0*%
%ADD98RoundRect,0.237500X-0.107824X0.367124X-0.332588X-0.189186X0.107824X-0.367124X0.332588X0.189186X0*%
%ADD99RoundRect,0.250000X0.221605X0.525253X-0.454543X0.344080X-0.221605X-0.525253X0.454543X-0.344080X0*%
%ADD100R,2.600000X2.600000*%
%ADD101C,2.600000*%
%ADD102C,1.200000*%
%ADD103RoundRect,0.250000X-0.750000X0.600000X-0.750000X-0.600000X0.750000X-0.600000X0.750000X0.600000X0*%
%ADD104O,2.000000X1.700000*%
%ADD105RoundRect,0.250000X0.600000X0.750000X-0.600000X0.750000X-0.600000X-0.750000X0.600000X-0.750000X0*%
%ADD106O,1.700000X2.000000*%
%ADD107RoundRect,0.250000X0.750000X-0.600000X0.750000X0.600000X-0.750000X0.600000X-0.750000X-0.600000X0*%
G04 APERTURE END LIST*
D10*
%TO.C,U16*%
X97460000Y-154006000D03*
D11*
X100000000Y-154006000D03*
X102540000Y-154006000D03*
%TD*%
D12*
%TO.C,R24*%
X87317819Y-52669626D03*
X86800181Y-50737774D03*
%TD*%
D13*
%TO.C,C26*%
X61021123Y-70080966D03*
X59643477Y-69042834D03*
%TD*%
D14*
%TO.C,R25*%
X65351807Y-134648193D03*
X63937593Y-136062407D03*
%TD*%
D15*
%TO.C,U28*%
X56911000Y-114036000D03*
D16*
X59451000Y-114036000D03*
X61991000Y-114036000D03*
X64531000Y-114036000D03*
X67071000Y-114036000D03*
X69611000Y-114036000D03*
X72151000Y-114036000D03*
X74691000Y-114036000D03*
X74691000Y-106416000D03*
X72151000Y-106416000D03*
X69611000Y-106416000D03*
X67071000Y-106416000D03*
X64531000Y-106416000D03*
X61991000Y-106416000D03*
X59451000Y-106416000D03*
X56911000Y-106416000D03*
%TD*%
D17*
%TO.C,R7*%
X127000000Y-91186000D03*
X125000000Y-91186000D03*
%TD*%
D18*
%TO.C,R10*%
X66000000Y-75000000D03*
X68000000Y-75000000D03*
%TD*%
D19*
%TO.C,U3*%
X98075750Y-129921000D03*
X98075750Y-128651000D03*
X98075750Y-127381000D03*
X98075750Y-126111000D03*
X98075750Y-124841000D03*
X98075750Y-123571000D03*
X98075750Y-122301000D03*
X98075750Y-121031000D03*
X92424250Y-121031000D03*
X92424250Y-122301000D03*
X92424250Y-123571000D03*
X92424250Y-124841000D03*
X92424250Y-126111000D03*
X92424250Y-127381000D03*
X92424250Y-128651000D03*
X92424250Y-129921000D03*
%TD*%
D20*
%TO.C,R37*%
X57564725Y-75500000D03*
X55832675Y-74500000D03*
%TD*%
D21*
%TO.C,U32*%
X48491605Y-83568795D03*
D11*
X47834204Y-86022247D03*
X47176804Y-88475699D03*
%TD*%
D22*
%TO.C,C2*%
X87122000Y-60859500D03*
X87122000Y-62584500D03*
%TD*%
D23*
%TO.C,R17*%
X134648193Y-134648193D03*
X136062407Y-136062407D03*
%TD*%
D24*
%TO.C,C21*%
X129919034Y-61021123D03*
X130957166Y-59643477D03*
%TD*%
D25*
%TO.C,U35*%
X152823196Y-88475699D03*
D11*
X152165796Y-86022247D03*
X151508395Y-83568795D03*
%TD*%
D26*
%TO.C,U25*%
X116431205Y-48491605D03*
D11*
X113977753Y-47834204D03*
X111524301Y-47176804D03*
%TD*%
D27*
%TO.C,R28*%
X130810000Y-68548000D03*
X130810000Y-66548000D03*
%TD*%
D28*
%TO.C,U11*%
X83871000Y-116921000D03*
X83871000Y-119461000D03*
X83871000Y-122001000D03*
X83871000Y-124541000D03*
X83871000Y-127081000D03*
X83871000Y-129621000D03*
X83871000Y-132161000D03*
X83871000Y-134701000D03*
X116129000Y-116921000D03*
X116129000Y-119461000D03*
X116129000Y-122001000D03*
X116129000Y-124541000D03*
X116129000Y-127081000D03*
X116129000Y-129621000D03*
X116129000Y-132161000D03*
X116129000Y-134701000D03*
%TD*%
D29*
%TO.C,C20*%
X51281906Y-106406263D03*
X49573694Y-106646337D03*
%TD*%
D30*
%TO.C,C27*%
X148718094Y-93593737D03*
X150426306Y-93353663D03*
%TD*%
D31*
%TO.C,C24*%
X54605696Y-81188898D03*
X53006304Y-80542702D03*
%TD*%
D32*
%TO.C,R22*%
X75500000Y-57564725D03*
X74500000Y-55832675D03*
%TD*%
D10*
%TO.C,U30*%
X45994000Y-97460000D03*
D11*
X45994000Y-100000000D03*
X45994000Y-102540000D03*
%TD*%
D33*
%TO.C,R39*%
X65351807Y-65351807D03*
X63937593Y-63937593D03*
%TD*%
D34*
%TO.C,U24*%
X51959404Y-124803295D03*
D11*
X53229404Y-127003000D03*
X54499404Y-129202705D03*
%TD*%
D35*
%TO.C,U29*%
X129202705Y-54499404D03*
D11*
X127003000Y-53229404D03*
X124803295Y-51959404D03*
%TD*%
D36*
%TO.C,R36*%
X142435275Y-75500000D03*
X144167325Y-74500000D03*
%TD*%
D37*
%TO.C,D1*%
X109831000Y-89642000D03*
D38*
X109831000Y-87102000D03*
%TD*%
D39*
%TO.C,U36*%
X63608009Y-60015906D03*
D11*
X61811957Y-61811957D03*
X60015906Y-63608009D03*
%TD*%
D40*
%TO.C,U13*%
X124803295Y-148040596D03*
D11*
X127003000Y-146770596D03*
X129202705Y-145500596D03*
%TD*%
D18*
%TO.C,R2*%
X140748000Y-118872000D03*
X142748000Y-118872000D03*
%TD*%
D15*
%TO.C,U12*%
X121920000Y-117094000D03*
D16*
X121920000Y-119634000D03*
X121920000Y-122174000D03*
X121920000Y-124714000D03*
X121920000Y-127254000D03*
X121920000Y-129794000D03*
X121920000Y-132334000D03*
X121920000Y-134874000D03*
X129540000Y-134874000D03*
X129540000Y-132334000D03*
X129540000Y-129794000D03*
X129540000Y-127254000D03*
X129540000Y-124714000D03*
X129540000Y-122174000D03*
X129540000Y-119634000D03*
X129540000Y-117094000D03*
%TD*%
D41*
%TO.C,U31*%
X139984094Y-63608009D03*
D11*
X138188043Y-61811957D03*
X136391991Y-60015906D03*
%TD*%
D42*
%TO.C,C10*%
X106406263Y-148718094D03*
X106646337Y-150426306D03*
%TD*%
D43*
%TO.C,C11*%
X93578812Y-148716129D03*
X93368588Y-150428271D03*
%TD*%
D18*
%TO.C,R16*%
X133636000Y-131318000D03*
X135636000Y-131318000D03*
%TD*%
D44*
%TO.C,U34*%
X54499404Y-70797295D03*
D11*
X53229404Y-72997000D03*
X51959404Y-75196705D03*
%TD*%
D45*
%TO.C,C8*%
X129907092Y-138988041D03*
X130969108Y-140347359D03*
%TD*%
D46*
%TO.C,U17*%
X103000000Y-141000000D03*
X110100000Y-141000000D03*
%TD*%
D47*
%TO.C,R34*%
X134648193Y-65351807D03*
X136062407Y-63937593D03*
%TD*%
D48*
%TO.C,C23*%
X138988041Y-70092908D03*
X140347359Y-69030892D03*
%TD*%
D49*
%TO.C,C1*%
X133137500Y-127500000D03*
X134862500Y-127500000D03*
%TD*%
D50*
%TO.C,R29*%
X112682181Y-52669626D03*
X113199819Y-50737774D03*
%TD*%
D51*
%TO.C,R15*%
X142435275Y-124500000D03*
X144167325Y-125500000D03*
%TD*%
D52*
%TO.C,R32*%
X124500000Y-57564725D03*
X125500000Y-55832675D03*
%TD*%
D53*
%TO.C,R19*%
X112682181Y-147330374D03*
X113199819Y-149262226D03*
%TD*%
D54*
%TO.C,U9*%
X145500596Y-129202705D03*
D11*
X146770596Y-127003000D03*
X148040596Y-124803295D03*
%TD*%
D55*
%TO.C,R20*%
X100000000Y-149000000D03*
X100000000Y-151000000D03*
%TD*%
D56*
%TO.C,U19*%
X75196705Y-51959404D03*
D11*
X72997000Y-53229404D03*
X70797295Y-54499404D03*
%TD*%
D57*
%TO.C,C28*%
X70092908Y-61011959D03*
X69030892Y-59652641D03*
%TD*%
D17*
%TO.C,R8*%
X126968000Y-87630000D03*
X124968000Y-87630000D03*
%TD*%
D58*
%TO.C,U33*%
X148040596Y-75196705D03*
D11*
X146770596Y-72997000D03*
X145500596Y-70797295D03*
%TD*%
D59*
%TO.C,J7*%
X134366000Y-78460000D03*
D28*
X136906000Y-78460000D03*
X134366000Y-81000000D03*
X136906000Y-81000000D03*
X134366000Y-83540000D03*
X136906000Y-83540000D03*
X134366000Y-86080000D03*
X136906000Y-86080000D03*
X134366000Y-88620000D03*
X136906000Y-88620000D03*
%TD*%
D60*
%TO.C,J5*%
X85000000Y-140000000D03*
X93000000Y-140000000D03*
%TD*%
D61*
%TO.C,R18*%
X124500000Y-142435275D03*
X125500000Y-144167325D03*
%TD*%
D62*
%TO.C,R27*%
X57564725Y-124500000D03*
X55832675Y-125500000D03*
%TD*%
D63*
%TO.C,SW1*%
X74672000Y-137160000D03*
D64*
X76672000Y-137160000D03*
X78672001Y-137160000D03*
D65*
X72571999Y-137160000D03*
X80772000Y-137160000D03*
%TD*%
D63*
%TO.C,SW2*%
X74672000Y-131572000D03*
D64*
X76672000Y-131572000D03*
X78672001Y-131572000D03*
D65*
X72571999Y-131572000D03*
X80772000Y-131572000D03*
%TD*%
D66*
%TO.C,U4*%
X116078000Y-77723950D03*
X117348000Y-77723950D03*
X118618000Y-77723950D03*
X119888000Y-77723950D03*
X121158000Y-77723950D03*
X122428000Y-77723950D03*
X123698000Y-77723950D03*
X124968000Y-77723950D03*
X124968000Y-72072450D03*
X123698000Y-72072450D03*
X122428000Y-72072450D03*
X121158000Y-72072450D03*
X119888000Y-72072450D03*
X118618000Y-72072450D03*
X117348000Y-72072450D03*
X116078000Y-72072450D03*
%TD*%
D67*
%TO.C,C9*%
X118797195Y-145400065D03*
X119471205Y-146987935D03*
%TD*%
D68*
%TO.C,C17*%
X106421188Y-51283871D03*
X106631412Y-49571729D03*
%TD*%
D69*
%TO.C,R40*%
X105181000Y-89442000D03*
X105181000Y-86902000D03*
%TD*%
D70*
%TO.C,U26*%
X47176804Y-111524301D03*
D11*
X47834204Y-113977753D03*
X48491605Y-116431205D03*
%TD*%
D71*
%TO.C,C22*%
X51283871Y-93578812D03*
X49571729Y-93368588D03*
%TD*%
D18*
%TO.C,R3*%
X63532000Y-82042000D03*
X65532000Y-82042000D03*
%TD*%
D72*
%TO.C,C3*%
X66495000Y-129286000D03*
X64770000Y-129286000D03*
%TD*%
D17*
%TO.C,R5*%
X112268000Y-124206000D03*
X110268000Y-124206000D03*
%TD*%
D66*
%TO.C,U2*%
X76149200Y-78600250D03*
X77419200Y-78600250D03*
X78689200Y-78600250D03*
X79959200Y-78600250D03*
X81229200Y-78600250D03*
X82499200Y-78600250D03*
X83769200Y-78600250D03*
X85039200Y-78600250D03*
X85039200Y-72948750D03*
X83769200Y-72948750D03*
X82499200Y-72948750D03*
X81229200Y-72948750D03*
X79959200Y-72948750D03*
X78689200Y-72948750D03*
X77419200Y-72948750D03*
X76149200Y-72948750D03*
%TD*%
D73*
%TO.C,C13*%
X81202805Y-54599935D03*
X80528795Y-53012065D03*
%TD*%
D18*
%TO.C,R1*%
X126500000Y-109000000D03*
X128500000Y-109000000D03*
%TD*%
D17*
%TO.C,R30*%
X95250000Y-87122000D03*
X93250000Y-87122000D03*
%TD*%
D74*
%TO.C,U14*%
X111524301Y-152823196D03*
D11*
X113977753Y-152165796D03*
X116431205Y-151508395D03*
%TD*%
D75*
%TO.C,U15*%
X56810000Y-91542000D03*
X56810000Y-94082000D03*
X56810000Y-96622000D03*
X56810000Y-99162000D03*
X56810000Y-101702000D03*
X75270000Y-91542000D03*
X75270000Y-96622000D03*
X75270000Y-101702000D03*
X75270000Y-94082000D03*
X75270000Y-99162000D03*
%TD*%
D76*
%TO.C,U21*%
X88475699Y-47176804D03*
D11*
X86022247Y-47834204D03*
X83568795Y-48491605D03*
%TD*%
D17*
%TO.C,R33*%
X51000000Y-100000000D03*
X49000000Y-100000000D03*
%TD*%
D77*
%TO.C,U18*%
X83568795Y-151508395D03*
D11*
X86022247Y-152165796D03*
X88475699Y-152823196D03*
%TD*%
D78*
%TO.C,C19*%
X118811102Y-54605696D03*
X119457298Y-53006304D03*
%TD*%
D18*
%TO.C,R12*%
X111030000Y-71628000D03*
X113030000Y-71628000D03*
%TD*%
D79*
%TO.C,C15*%
X93593737Y-51281906D03*
X93353663Y-49573694D03*
%TD*%
D10*
%TO.C,U23*%
X102540000Y-45994000D03*
D11*
X100000000Y-45994000D03*
X97460000Y-45994000D03*
%TD*%
D10*
%TO.C,U6*%
X154006000Y-102540000D03*
D11*
X154006000Y-100000000D03*
X154006000Y-97460000D03*
%TD*%
D80*
%TO.C,R23*%
X75500000Y-142435275D03*
X74500000Y-144167325D03*
%TD*%
D81*
%TO.C,R38*%
X147330374Y-87317819D03*
X149262226Y-86800181D03*
%TD*%
D18*
%TO.C,R9*%
X126500000Y-106500000D03*
X128500000Y-106500000D03*
%TD*%
D82*
%TO.C,C16*%
X61011959Y-129907092D03*
X59652641Y-130969108D03*
%TD*%
D18*
%TO.C,R13*%
X149000000Y-100000000D03*
X151000000Y-100000000D03*
%TD*%
D83*
%TO.C,C25*%
X145400065Y-81202805D03*
X146987935Y-80528795D03*
%TD*%
D84*
%TO.C,C18*%
X54599935Y-118797195D03*
X53012065Y-119471205D03*
%TD*%
D85*
%TO.C,U8*%
X151508395Y-116431205D03*
D11*
X152165796Y-113977753D03*
X152823196Y-111524301D03*
%TD*%
D86*
%TO.C,C6*%
X145394304Y-118811102D03*
X146993696Y-119457298D03*
%TD*%
D63*
%TO.C,SW3*%
X74672000Y-125984000D03*
D64*
X76672000Y-125984000D03*
X78672001Y-125984000D03*
D65*
X72571999Y-125984000D03*
X80772000Y-125984000D03*
%TD*%
D87*
%TO.C,U10*%
X136391991Y-139984094D03*
D11*
X138188043Y-138188043D03*
X139984094Y-136391991D03*
%TD*%
D15*
%TO.C,U5*%
X68834000Y-83058000D03*
D69*
X71374000Y-83058000D03*
X73914000Y-83058000D03*
X76454000Y-83058000D03*
X78994000Y-83058000D03*
X81534000Y-83058000D03*
X84074000Y-83058000D03*
X86614000Y-83058000D03*
X89154000Y-83058000D03*
X91694000Y-83058000D03*
X94234000Y-83058000D03*
X96774000Y-83058000D03*
X99314000Y-83058000D03*
X101854000Y-83058000D03*
X104394000Y-83058000D03*
X106934000Y-83058000D03*
X109474000Y-83058000D03*
X112014000Y-83058000D03*
X114554000Y-83058000D03*
X117094000Y-83058000D03*
X119634000Y-83058000D03*
X122174000Y-83058000D03*
X124714000Y-83058000D03*
X127254000Y-83058000D03*
X127254000Y-67818000D03*
X124714000Y-67818000D03*
X122174000Y-67818000D03*
X119634000Y-67818000D03*
X117094000Y-67818000D03*
X114554000Y-67818000D03*
X112014000Y-67818000D03*
X109474000Y-67818000D03*
X106934000Y-67818000D03*
X104394000Y-67818000D03*
X101854000Y-67818000D03*
X99314000Y-67818000D03*
X96774000Y-67818000D03*
X94234000Y-67818000D03*
X91694000Y-67818000D03*
X89154000Y-67818000D03*
X86614000Y-67818000D03*
X84074000Y-67818000D03*
X81534000Y-67818000D03*
X78994000Y-67818000D03*
X76454000Y-67818000D03*
X73914000Y-67818000D03*
X71374000Y-67818000D03*
X68834000Y-67818000D03*
%TD*%
D88*
%TO.C,R14*%
X147330374Y-112682181D03*
X149262226Y-113199819D03*
%TD*%
D66*
%TO.C,U1*%
X133350000Y-113061750D03*
X134620000Y-113061750D03*
X135890000Y-113061750D03*
X137160000Y-113061750D03*
X138430000Y-113061750D03*
X139700000Y-113061750D03*
X140970000Y-113061750D03*
X142240000Y-113061750D03*
X142240000Y-107410250D03*
X140970000Y-107410250D03*
X139700000Y-107410250D03*
X138430000Y-107410250D03*
X137160000Y-107410250D03*
X135890000Y-107410250D03*
X134620000Y-107410250D03*
X133350000Y-107410250D03*
%TD*%
D89*
%TO.C,C14*%
X70080966Y-138978877D03*
X69042834Y-140356523D03*
%TD*%
D90*
%TO.C,J6*%
X120137000Y-139192000D03*
D91*
X122677000Y-139192000D03*
%TD*%
D92*
%TO.C,R35*%
X52669626Y-87317819D03*
X50737774Y-86800181D03*
%TD*%
D93*
%TO.C,C7*%
X138978877Y-129919034D03*
X140356523Y-130957166D03*
%TD*%
D94*
%TO.C,U20*%
X70797295Y-145500596D03*
D11*
X72997000Y-146770596D03*
X75196705Y-148040596D03*
%TD*%
D95*
%TO.C,U22*%
X60015906Y-136391991D03*
D11*
X61811957Y-138188043D03*
X63608009Y-139984094D03*
%TD*%
D96*
%TO.C,C5*%
X148716129Y-106421188D03*
X150428271Y-106631412D03*
%TD*%
D97*
%TO.C,R21*%
X87317819Y-147330374D03*
X86800181Y-149262226D03*
%TD*%
D27*
%TO.C,R26*%
X100000000Y-51000000D03*
X100000000Y-49000000D03*
%TD*%
D63*
%TO.C,SW4*%
X74672000Y-120396000D03*
D64*
X76672000Y-120396000D03*
X78672001Y-120396000D03*
D65*
X72571999Y-120396000D03*
X80772000Y-120396000D03*
%TD*%
D49*
%TO.C,C4*%
X111051000Y-80518000D03*
X112776000Y-80518000D03*
%TD*%
D18*
%TO.C,R6*%
X110268000Y-128016000D03*
X112268000Y-128016000D03*
%TD*%
D98*
%TO.C,C12*%
X81188898Y-145394304D03*
X80542702Y-146993696D03*
%TD*%
D15*
%TO.C,U27*%
X90932000Y-61976000D03*
D16*
X93472000Y-61976000D03*
X96012000Y-61976000D03*
X98552000Y-61976000D03*
X101092000Y-61976000D03*
X103632000Y-61976000D03*
X106172000Y-61976000D03*
X108712000Y-61976000D03*
X108712000Y-54356000D03*
X106172000Y-54356000D03*
X103632000Y-54356000D03*
X101092000Y-54356000D03*
X98552000Y-54356000D03*
X96012000Y-54356000D03*
X93472000Y-54356000D03*
X90932000Y-54356000D03*
%TD*%
D17*
%TO.C,R4*%
X86328000Y-87040000D03*
X84328000Y-87040000D03*
%TD*%
D99*
%TO.C,R31*%
X52669626Y-112682181D03*
X50737774Y-113199819D03*
%TD*%
D18*
%TO.C,R11*%
X89154000Y-87122000D03*
X91154000Y-87122000D03*
%TD*%
D100*
%TO.C,U7*%
X121652000Y-98806000D03*
D101*
X126652000Y-98806000D03*
X131652000Y-98806000D03*
X136652000Y-98806000D03*
%TD*%
D102*
%TO.C,J3*%
X64467000Y-120086000D03*
D103*
X62467000Y-121686000D03*
D104*
X62467000Y-124186000D03*
%TD*%
D102*
%TO.C,J1*%
X137382000Y-117566000D03*
D103*
X135382000Y-119166000D03*
D104*
X135382000Y-121666000D03*
%TD*%
D102*
%TO.C,J2*%
X84328000Y-62992000D03*
D105*
X82728000Y-60992000D03*
D106*
X80228000Y-60992000D03*
%TD*%
D102*
%TO.C,J4*%
X118142000Y-64338000D03*
D107*
X120142000Y-62738000D03*
D104*
X120142000Y-60238000D03*
%TD*%
M02*
